<?xml version="1.0" standalone="no"?>
<!DOCTYPE svg PUBLIC "-//W3C//DTD SVG 20010904//EN"
 "http://www.w3.org/TR/2001/REC-SVG-20010904/DTD/svg10.dtd">
<svg version="1.0" xmlns="http://www.w3.org/2000/svg"
 width="252.000000pt" height="107.000000pt" viewBox="0 0 252.000000 107.000000"
 preserveAspectRatio="xMidYMid meet">

<g transform="translate(0.000000,107.000000) scale(0.100000,-0.100000)"
fill="#000000" stroke="none">
<path d="M447 1040 c-36 -193 -38 -208 -32 -375 l5 -170 -35 -19 c-48 -26 -47
-49 2 -44 l38 3 8 -63 c7 -52 6 -66 -7 -81 -15 -17 -14 -20 8 -44 13 -14 27
-44 31 -66 3 -22 13 -42 21 -45 12 -5 14 -1 9 15 -4 11 -4 35 -1 53 6 29 12
34 64 50 87 28 229 103 248 131 23 35 12 65 -45 124 -61 63 -127 85 -211 72
-30 -5 -57 -7 -59 -5 -2 2 -8 106 -13 230 -8 211 -19 297 -31 234z m98 -495
c-42 -20 -61 -20 -45 0 7 8 27 15 44 14 l31 -1 -30 -13z m135 -80 c13 -14 22
-26 19 -28 -43 -34 -186 -100 -193 -88 -2 3 -7 32 -10 64 -7 54 -6 58 16 66
13 6 50 10 84 10 52 1 64 -2 84 -24z m98 -61 c-14 -14 -15 -14 -10 11 3 19 8
23 15 16 8 -8 7 -16 -5 -27z"/>
<path d="M214 856 c-58 -27 -116 -90 -132 -143 -6 -21 -18 -124 -27 -229 -19
-216 -15 -251 37 -310 44 -50 81 -66 156 -68 52 -1 66 2 76 17 9 15 7 21 -8
33 -11 8 -32 14 -46 14 -36 0 -89 37 -114 80 -19 31 -21 55 -24 209 -2 96 -1
194 3 218 11 73 88 143 159 143 25 0 39 20 30 45 -9 22 -52 18 -110 -9z"/>
<path d="M2126 864 c-9 -25 10 -41 55 -47 46 -6 104 -48 132 -94 19 -33 46
-261 47 -388 0 -106 -36 -152 -133 -170 -30 -6 -37 -12 -37 -30 0 -29 18 -36
64 -25 56 12 112 54 143 107 l28 48 0 225 c0 211 -1 227 -22 265 -27 51 -57
79 -113 104 -57 26 -155 29 -164 5z"/>
<path d="M1437 650 c-96 -25 -126 -40 -138 -64 -9 -18 -8 -19 3 -5 7 9 24 21
37 29 21 11 23 10 17 -5 -6 -16 -5 -16 18 -1 42 27 41 18 -4 -30 -52 -56 -44
-73 9 -18 52 55 91 70 132 54 47 -20 79 -70 86 -134 l6 -56 -34 0 c-51 0 -174
-37 -219 -65 -51 -32 -53 -61 -7 -93 25 -17 62 -26 147 -36 80 -10 117 -19
126 -30 15 -21 31 -20 43 3 6 10 24 24 41 29 16 6 30 13 30 16 0 3 -12 1 -26
-4 -34 -13 -34 -13 -34 14 0 13 9 35 20 49 11 14 20 32 20 40 0 7 -9 22 -20
32 -17 15 -20 31 -20 97 0 108 -30 160 -109 187 -41 13 -40 14 -124 -9z m103
-20 c0 -4 -11 -5 -25 -2 -14 2 -23 8 -20 12 6 10 45 1 45 -10z m60 -65 c0 -8
-2 -15 -4 -15 -2 0 -6 7 -10 15 -3 8 -1 15 4 15 6 0 10 -7 10 -15z m-26 -191
c9 -4 16 -18 16 -34 0 -25 -4 -28 -37 -32 -37 -4 -121 7 -132 17 -10 11 22 30
67 41 60 15 67 15 86 8z m-154 -75 c18 -15 20 -19 7 -15 -10 3 -25 6 -33 6 -8
0 -14 7 -14 15 0 20 10 19 40 -6z m175 -59 c3 -5 -3 -10 -14 -10 -12 0 -21 5
-21 10 0 6 6 10 14 10 8 0 18 -4 21 -10z"/>
<path d="M1017 640 c-69 -26 -108 -60 -140 -118 -67 -124 -13 -271 110 -299
66 -16 160 -5 198 21 52 35 95 79 95 95 -1 13 -3 13 -14 -2 -9 -12 -16 -14
-21 -7 -4 6 -1 17 5 25 6 8 9 19 5 25 -4 7 -21 -4 -44 -29 -42 -45 -73 -56
-136 -46 -58 8 -120 64 -130 116 -13 71 63 169 131 169 38 0 84 -36 84 -65 0
-9 5 -13 10 -10 7 4 7 12 0 25 -17 33 -12 44 12 24 l22 -19 -17 28 c-18 28
-18 28 22 39 9 3 2 12 -21 26 -44 27 -105 28 -171 2z m-18 -348 c-12 -5 -39
17 -39 30 0 5 11 1 24 -9 13 -10 20 -20 15 -21z"/>
<path d="M1782 627 l-10 -32 -1 30 c-2 29 -2 29 -17 10 -13 -17 -15 -47 -11
-200 3 -110 10 -196 18 -220 l13 -40 4 32 c2 23 9 33 28 37 l24 6 -6 113 -7
112 37 33 c20 17 41 32 46 32 36 0 59 -111 46 -219 -10 -78 -9 -92 8 -109 14
-14 16 -13 24 9 5 13 13 54 16 91 10 87 53 163 113 196 24 13 48 20 54 16 9
-5 10 -45 6 -140 -5 -115 -3 -134 10 -134 8 0 17 9 20 20 3 11 9 20 13 20 16
0 30 65 30 142 0 74 -16 138 -38 151 -15 10 -140 -47 -172 -78 l-28 -27 -18
57 c-11 35 -27 63 -41 72 -21 14 -26 13 -50 -3 -16 -10 -36 -28 -46 -41 -28
-35 -37 -28 -37 31 0 64 -13 79 -28 33z m135 -61 c-2 -6 -14 -12 -26 -14 -20
-3 -21 -1 -10 16 13 20 43 19 36 -2z"/>
</g>
</svg>
