<?xml version="1.0" standalone="no"?>
<!DOCTYPE svg PUBLIC "-//W3C//DTD SVG 20010904//EN"
 "http://www.w3.org/TR/2001/REC-SVG-20010904/DTD/svg10.dtd">
<svg version="1.0" xmlns="http://www.w3.org/2000/svg"
 width="624.000000pt" height="356.000000pt" viewBox="0 0 624.000000 356.000000"
 preserveAspectRatio="xMidYMid meet">

<g transform="translate(0.000000,356.000000) scale(0.100000,-0.100000)"
fill="#000000" stroke="none">
<path d="M150 3245 l0 -195 168 2 167 3 3 193 2 192 -170 0 -170 0 0 -195z"/>
<path d="M3142 3248 l3 -193 168 -3 167 -2 0 195 0 195 -170 0 -170 0 2 -192z"/>
<path d="M4670 2669 c-146 -17 -332 -85 -430 -158 -98 -73 -220 -220 -220
-265 0 -8 -4 -17 -9 -21 -13 -8 -39 -127 -46 -217 l-7 -78 220 0 c219 0 220 0
226 23 3 12 6 34 6 48 0 85 81 199 173 244 72 35 175 55 282 55 250 0 395 -64
445 -196 26 -71 26 -153 0 -203 -55 -108 -181 -154 -585 -212 -77 -11 -160
-26 -185 -33 -25 -7 -79 -21 -120 -31 -216 -52 -384 -164 -465 -310 -57 -102
-79 -199 -79 -355 -1 -219 44 -341 174 -471 133 -135 286 -190 530 -191 195
-1 308 27 470 115 74 40 117 74 194 149 55 54 102 96 104 93 3 -3 9 -33 14
-66 12 -87 56 -158 128 -204 20 -12 76 -33 125 -45 77 -19 105 -22 195 -16 58
3 128 12 155 20 l50 13 2 167 3 166 -80 0 c-73 0 -82 2 -110 28 -21 18 -33 41
-38 73 -5 25 -10 331 -11 680 -1 403 -6 658 -12 699 -14 83 -64 190 -119 258
-78 94 -234 180 -391 216 -148 34 -413 45 -589 25z m660 -1346 c0 -199 -14
-276 -65 -368 -68 -121 -214 -228 -370 -271 -33 -9 -104 -18 -158 -19 -159 -6
-287 42 -345 128 -46 68 -52 87 -59 184 -5 70 3 112 33 179 40 89 170 164 331
190 304 49 557 107 588 135 5 5 17 9 27 9 17 0 18 -13 18 -167z"/>
<path d="M150 1470 l0 -1110 170 0 170 0 0 1110 0 1110 -170 0 -170 0 0 -1110z"/>
<path d="M860 2573 c0 -10 35 -104 180 -488 62 -165 129 -340 147 -390 19 -49
45 -119 58 -155 13 -36 118 -315 233 -620 l209 -555 145 -3 c111 -2 147 1 151
10 2 7 48 130 101 273 53 143 102 271 107 285 6 14 35 90 64 170 29 80 58 156
64 170 22 53 471 1260 477 1284 l6 26 -170 0 -170 0 -75 -212 c-42 -117 -133
-370 -202 -563 -69 -192 -139 -386 -154 -430 -120 -337 -183 -511 -190 -518
-4 -4 -28 50 -53 120 -26 71 -88 238 -138 373 -51 135 -102 274 -115 310 -13
36 -51 139 -85 230 -34 91 -72 194 -85 230 -13 36 -44 121 -70 190 -26 69 -58
158 -73 198 l-26 72 -168 0 c-92 0 -168 -3 -168 -7z"/>
<path d="M3140 1470 l0 -1110 170 0 170 0 0 1110 0 1110 -170 0 -170 0 0
-1110z"/>
</g>
</svg>
