<?xml version="1.0" standalone="no"?>
<!DOCTYPE svg PUBLIC "-//W3C//DTD SVG 20010904//EN"
 "http://www.w3.org/TR/2001/REC-SVG-20010904/DTD/svg10.dtd">
<svg version="1.0" xmlns="http://www.w3.org/2000/svg"
 width="1147.000000pt" height="1147.000000pt" viewBox="0 0 1147.000000 1147.000000"
 preserveAspectRatio="xMidYMid meet">

<g transform="translate(0.000000,1147.000000) scale(0.100000,-0.100000)"
fill="#000000" stroke="none">
<path d="M5380 11450 c-1056 -80 -1965 -384 -2795 -935 -356 -237 -570 -411
-870 -708 -224 -222 -291 -296 -457 -502 -309 -384 -575 -825 -781 -1295 -229
-523 -393 -1157 -442 -1705 -4 -38 -9 -81 -12 -95 -3 -14 -7 -189 -10 -390 -6
-441 5 -605 68 -1015 43 -275 145 -689 224 -905 13 -36 42 -114 64 -175 400
-1098 1209 -2114 2206 -2770 449 -295 874 -499 1425 -685 303 -102 795 -201
1195 -240 275 -27 786 -27 1065 0 230 22 508 65 685 105 33 7 94 21 135 30
132 30 381 103 500 145 63 23 126 46 140 50 190 62 587 247 836 388 172 98
403 248 563 365 117 86 275 209 291 227 3 3 52 47 110 97 646 564 1191 1327
1510 2113 74 182 92 232 146 398 285 872 356 1783 210 2712 -102 648 -353
1353 -683 1920 -226 388 -437 677 -738 1010 -546 604 -1260 1109 -2005 1420
-69 29 -134 56 -145 61 -34 15 -185 69 -295 105 -392 131 -928 237 -1355 268
-139 11 -673 14 -785 6z m825 -125 c279 -27 578 -70 720 -105 22 -5 72 -17
110 -26 636 -147 1276 -431 1855 -822 148 -100 238 -165 306 -221 17 -14 51
-42 75 -61 517 -413 1032 -1024 1362 -1615 47 -84 255 -507 270 -550 8 -22 29
-76 47 -120 198 -493 321 -1009 376 -1575 21 -226 21 -765 0 -990 -80 -820
-304 -1551 -684 -2230 -279 -498 -586 -898 -1003 -1305 -251 -245 -495 -443
-779 -632 -497 -332 -1001 -568 -1545 -726 -231 -67 -311 -87 -490 -122 -831
-163 -1749 -133 -2550 84 -799 217 -1552 614 -2177 1149 -432 369 -780 766
-1084 1237 -369 571 -631 1207 -774 1875 -131 615 -155 1294 -68 1925 31 227
104 590 148 730 5 17 21 71 36 120 229 773 656 1533 1203 2140 78 86 372 378
456 452 579 510 1256 897 1995 1140 379 124 726 195 1190 243 235 24 777 26
1005 5z"/>
<path d="M4781 11100 c-32 -5 -35 -9 -52 -65 -19 -67 -92 -297 -106 -334 -9
-22 -18 -12 -115 125 -58 82 -113 162 -123 177 -15 23 -24 28 -54 25 l-36 -3
4 -290 c1 -159 4 -290 4 -291 1 -1 18 1 37 3 l36 5 -7 66 c-4 37 -10 121 -14
187 l-6 120 20 -23 c11 -13 66 -88 121 -168 69 -99 107 -144 118 -142 10 2 23
27 35 68 21 74 73 245 92 305 l13 40 12 -45 c6 -25 20 -74 30 -110 10 -36 26
-100 36 -143 l18 -78 60 7 c34 4 64 9 68 13 4 4 -4 43 -18 86 -14 44 -50 167
-80 274 -29 107 -55 195 -56 196 -2 0 -18 -2 -37 -5z"/>
<path d="M6558 10843 c-92 -147 -166 -268 -165 -269 1 -1 18 -4 38 -8 l35 -6
45 80 c39 72 47 80 69 76 14 -3 57 -10 97 -16 l71 -12 11 -66 c6 -37 12 -78
14 -92 2 -22 8 -26 72 -36 39 -7 71 -11 72 -10 2 1 -13 78 -33 172 -19 93 -47
226 -61 295 -14 70 -28 131 -32 137 -3 5 -19 12 -36 16 -30 6 -31 5 -197 -261z
m166 -22 l13 -74 -59 7 c-93 9 -94 10 -35 103 59 94 56 95 81 -36z"/>
<path d="M5710 10989 c-29 -11 -60 -56 -60 -89 0 -29 26 -77 49 -90 11 -5 36
-10 56 -10 97 0 132 140 46 185 -33 17 -54 18 -91 4z"/>
<path d="M7147 10983 c-2 -4 -14 -39 -25 -78 -12 -38 -48 -158 -81 -265 -33
-107 -59 -195 -58 -196 1 -1 56 -18 122 -39 66 -20 133 -41 149 -46 16 -5 30
-8 30 -7 1 2 6 17 12 35 l12 31 -86 21 c-47 12 -89 24 -93 29 -3 4 24 106 62
227 37 121 70 230 73 241 5 19 0 23 -38 33 -24 6 -50 13 -59 17 -8 3 -17 2
-20 -3z"/>
<path d="M4128 10947 c-24 -9 -28 -17 -28 -51 0 -68 -12 -277 -19 -337 l-6
-57 -115 145 c-63 80 -122 154 -131 166 l-17 21 -56 -19 c-32 -11 -62 -23 -68
-26 -7 -4 29 -52 89 -120 55 -63 139 -163 188 -224 48 -60 91 -114 95 -118 5
-6 48 6 69 19 2 2 5 36 7 76 17 332 26 478 31 506 6 34 3 36 -39 19z"/>
<path d="M7601 10827 c-5 -12 -21 -49 -36 -82 -52 -117 -175 -415 -175 -425 0
-5 6 -10 13 -10 6 0 70 -25 142 -55 71 -30 133 -51 136 -47 4 4 11 19 14 33 6
26 4 28 -79 54 -47 15 -86 30 -86 34 0 11 71 176 79 184 5 5 44 -7 86 -27 43
-20 81 -36 84 -36 4 0 11 13 17 29 l11 28 -83 33 c-46 18 -84 37 -84 42 0 5
14 43 31 84 35 85 31 84 134 30 33 -17 63 -32 66 -34 7 -3 32 59 26 64 -3 3
-225 99 -265 115 -19 7 -24 5 -31 -14z"/>
<path d="M3514 10716 c-20 -11 -19 -16 61 -181 45 -94 81 -172 79 -174 -2 -2
-32 8 -66 22 -80 33 -273 107 -360 138 -65 23 -68 23 -103 6 -29 -14 -34 -20
-27 -35 5 -9 62 -126 127 -259 l118 -242 29 15 c15 8 28 17 28 21 0 3 -35 76
-77 162 -103 209 -97 194 -70 185 12 -3 127 -47 256 -96 213 -82 236 -89 262
-78 16 7 29 17 29 22 0 20 -244 508 -254 507 -6 -1 -20 -6 -32 -13z"/>
<path d="M8038 10506 l5 -174 -24 -15 c-13 -8 -72 -39 -131 -70 -58 -30 -112
-58 -119 -62 -8 -6 0 -14 25 -27 l36 -19 73 44 c39 24 87 52 105 61 l32 17 0
-120 0 -120 58 -27 c31 -16 60 -30 64 -32 4 -2 9 79 10 180 l3 183 134 69 135
69 -38 19 -38 19 -97 -55 c-53 -31 -100 -56 -104 -56 -4 0 -7 51 -7 114 l0
114 -30 11 c-17 5 -44 19 -59 31 -16 11 -31 20 -34 20 -2 0 -2 -78 1 -174z"/>
<path d="M5450 10494 c-114 -6 -361 -35 -480 -55 -63 -11 -141 -24 -173 -30
-31 -5 -128 -28 -215 -50 -86 -22 -182 -46 -212 -54 -169 -42 -490 -170 -745
-296 -756 -373 -1402 -943 -1868 -1646 -130 -197 -201 -321 -302 -528 -149
-305 -266 -617 -335 -895 -17 -69 -35 -141 -40 -160 -11 -46 -55 -285 -69
-380 -57 -382 -55 -968 4 -1360 53 -347 123 -623 244 -960 17 -47 35 -93 41
-102 5 -10 10 -22 10 -27 0 -5 13 -39 30 -74 16 -36 30 -68 30 -72 0 -3 32
-72 72 -153 371 -760 925 -1397 1633 -1878 378 -258 871 -491 1290 -613 238
-68 419 -108 695 -150 363 -56 980 -56 1340 0 161 25 202 32 315 56 315 65
674 178 903 284 35 16 65 29 67 29 22 0 351 171 495 258 124 74 444 293 470
322 3 3 52 43 110 89 479 385 918 928 1208 1492 261 507 408 973 493 1559 21
150 39 428 39 620 0 449 -44 794 -161 1255 -32 123 -135 425 -197 575 -103
250 -248 527 -400 765 -211 330 -523 698 -797 941 -49 43 -99 87 -110 97 -55
50 -262 211 -350 273 -99 70 -353 234 -360 234 -2 0 -28 14 -57 31 -29 18
-132 71 -228 119 -494 246 -1003 394 -1605 466 -125 15 -635 26 -785 18z m711
-129 c597 -54 1154 -215 1674 -480 66 -34 138 -72 160 -84 22 -13 72 -41 110
-64 162 -93 500 -334 620 -441 22 -20 59 -51 82 -69 59 -45 382 -373 474 -482
556 -658 912 -1431 1048 -2275 11 -69 23 -152 26 -185 3 -33 11 -103 17 -155
18 -149 15 -656 -5 -845 -65 -613 -216 -1132 -487 -1666 -287 -566 -724 -1107
-1215 -1501 -652 -524 -1409 -862 -2201 -982 -310 -47 -360 -51 -739 -50 -379
0 -389 1 -723 50 -805 116 -1609 486 -2282 1048 -127 106 -433 415 -546 551
-611 735 -954 1539 -1070 2505 -22 179 -25 776 -6 935 71 579 166 943 365
1410 509 1190 1560 2154 2801 2566 390 130 829 211 1266 233 128 6 470 -4 631
-19z"/>
<path d="M5770 10273 c-13 -21 -35 -72 -50 -113 -26 -71 -30 -75 -62 -81 -76
-12 -149 -83 -163 -157 -3 -18 -9 -40 -12 -48 -5 -13 3 -14 54 -9 39 5 68 3
81 -4 35 -19 53 -65 50 -129 -3 -52 -6 -58 -37 -79 -64 -43 -136 -21 -187 57
-27 40 -27 42 -10 70 44 76 25 170 -44 218 -65 44 -128 41 -185 -9 -65 -57
-71 -159 -15 -219 28 -30 29 -33 16 -64 -37 -88 -155 -148 -224 -112 -34 18
-72 73 -72 105 0 21 3 23 55 25 26 1 30 5 33 35 5 46 -15 89 -49 106 -37 19
-132 19 -169 0 -32 -16 -60 -61 -60 -95 0 -15 -6 -20 -27 -20 -28 0 -161 31
-197 46 -13 5 -23 2 -32 -10 -12 -16 2 -30 138 -134 84 -64 189 -153 235 -197
80 -77 83 -82 83 -125 0 -28 -8 -56 -20 -75 -11 -16 -20 -38 -20 -47 0 -15 57
-68 74 -68 4 0 33 -29 66 -63 67 -72 135 -112 263 -155 49 -17 90 -32 92 -34
3 -2 -188 -196 -423 -431 -235 -234 -545 -545 -690 -690 l-264 -264 885 -886
c487 -488 889 -887 893 -887 10 0 1774 1763 1774 1773 0 4 -308 317 -685 695
-377 378 -685 688 -685 688 0 1 18 4 40 8 133 21 299 102 357 173 21 25 57 65
81 88 46 44 49 56 29 104 -23 55 -7 115 44 168 49 50 201 177 327 272 114 86
112 117 -6 81 -38 -11 -90 -23 -115 -26 -40 -6 -47 -4 -53 12 -26 85 -65 114
-154 114 -56 0 -104 -20 -120 -49 -5 -11 -10 -41 -10 -67 l0 -47 33 5 c17 3
38 3 45 1 36 -13 -14 -111 -69 -133 -62 -26 -170 22 -225 101 l-28 40 28 26
c107 99 39 273 -107 273 -38 0 -90 -31 -120 -71 -30 -41 -34 -110 -8 -159 12
-23 18 -47 14 -53 -22 -36 -80 -88 -114 -101 -34 -14 -44 -14 -72 -3 -17 8
-39 22 -47 31 -28 35 -7 153 33 181 24 17 77 19 125 6 l33 -10 -6 32 c-10 44
-42 117 -63 140 -23 26 -70 49 -111 56 -30 5 -36 11 -50 57 -20 61 -75 167
-89 172 -5 1 -20 -14 -32 -35z m58 -100 c11 -27 24 -61 28 -78 10 -43 19 -52
66 -59 57 -9 92 -32 117 -76 l21 -37 -46 -6 c-83 -9 -134 -71 -142 -174 -4
-44 0 -59 19 -88 74 -108 217 -75 314 72 l27 42 -26 31 c-60 72 -14 180 77
180 120 -1 149 -164 38 -210 l-29 -12 30 -51 c43 -75 86 -116 146 -143 57 -26
129 -31 165 -13 58 30 107 101 107 155 0 33 -34 64 -70 64 -34 0 -36 6 -15 36
19 28 88 37 131 19 39 -16 54 -41 54 -89 0 -36 0 -36 43 -36 23 0 57 4 75 9
45 13 40 1 -20 -44 -28 -22 -56 -44 -62 -50 -6 -5 -34 -28 -61 -50 -87 -70
-172 -162 -178 -193 l-6 -30 -68 28 c-62 26 -203 69 -326 99 -171 41 -525 54
-717 27 -160 -23 -421 -96 -512 -142 -39 -20 -48 -17 -48 14 0 36 -85 125
-230 241 -58 46 -109 88 -115 93 -5 4 26 5 68 2 l77 -7 0 37 c0 21 5 46 11 58
26 48 144 58 174 14 21 -30 19 -36 -15 -36 -61 0 -87 -58 -54 -123 37 -73 88
-107 161 -107 92 1 195 84 224 180 11 38 11 40 -25 73 -31 30 -36 40 -36 80 0
85 81 133 159 93 56 -29 70 -122 26 -175 -24 -28 -25 -32 -11 -58 67 -128 168
-176 270 -128 55 27 80 74 73 144 -9 104 -49 156 -129 167 l-47 6 14 28 c23
44 71 78 120 85 49 8 59 16 69 60 11 43 47 125 56 125 4 0 17 -21 28 -47z
m-108 -725 c-25 -27 -25 -48 0 -81 l20 -26 -42 -5 c-24 -2 -81 -9 -129 -15
-117 -15 -112 -16 -94 19 20 38 19 49 -6 76 l-22 23 26 6 c33 9 158 22 220 24
l48 1 -21 -22z m388 1 c51 -10 53 -12 33 -25 -25 -18 -27 -44 -5 -86 l16 -31
-38 7 c-22 3 -91 11 -154 17 -63 6 -117 13 -119 15 -2 2 3 12 12 22 22 24 22
51 0 81 l-16 24 109 -7 c60 -4 133 -11 162 -17z m-778 -48 c-18 -34 -12 -69
15 -87 14 -9 25 -19 25 -23 0 -4 -30 -15 -67 -25 -38 -10 -110 -33 -161 -53
-52 -19 -96 -32 -99 -30 -2 3 0 14 6 25 15 29 15 30 -20 63 -18 16 -30 31 -28
33 22 18 258 99 337 115 1 1 -2 -8 -8 -18z m1130 -38 c133 -44 140 -50 100
-76 -33 -21 -49 -62 -31 -80 24 -24 8 -25 -44 -1 -31 13 -101 38 -157 54 -56
17 -103 32 -106 34 -2 3 10 12 27 21 26 13 34 25 33 55 0 3 -3 15 -6 27 -6 20
-5 21 36 12 24 -6 90 -26 148 -46z m-475 -74 c179 -21 475 -97 475 -123 0 -16
-221 -93 -349 -122 l-74 -16 -128 128 -129 129 -128 -128 c-87 -87 -134 -127
-150 -127 -34 0 -148 34 -237 70 -94 39 -129 60 -118 70 13 12 190 67 278 85
191 41 395 54 560 34z m-106 -200 l101 -102 0 -1481 0 -1481 -102 -102 -103
-103 -92 92 -93 93 0 1500 0 1500 92 92 c51 51 94 93 95 93 1 0 47 -46 102
-101z m-669 -11 c57 -27 153 -60 230 -79 l45 -11 -32 -28 -32 -28 -68 18
c-124 32 -189 63 -270 128 -49 38 -52 45 -20 59 17 8 30 5 57 -12 19 -11 60
-33 90 -47z m1339 53 c12 -8 12 -13 -2 -35 -35 -53 -196 -127 -344 -157 l-63
-13 -30 29 c-16 16 -30 32 -30 36 0 4 19 10 42 14 60 10 243 70 325 105 75 32
82 34 102 21z m-1349 -1633 l0 -1103 -168 170 -169 170 1 772 1 773 160 160
c88 88 163 160 167 160 5 0 8 -496 8 -1102z m1500 7 l0 -760 -157 -157 c-86
-87 -158 -158 -160 -158 -2 0 -3 485 -3 1077 l0 1078 160 -160 160 -160 0
-760z m-2213 0 c-1 -212 -4 -385 -7 -385 -3 0 -91 87 -197 192 l-193 193 192
192 c106 106 196 193 200 193 4 0 6 -173 5 -385z m2905 -69 c-111 -113 -238
-240 -261 -260 l-21 -19 0 349 0 349 175 -175 175 -175 -68 -69z"/>
<path d="M3508 7533 l-3 -48 -42 -3 c-35 -3 -43 -7 -43 -23 0 -16 7 -19 45
-19 39 0 45 -3 45 -21 0 -12 -14 -34 -31 -50 -25 -23 -30 -35 -27 -60 4 -28 1
-32 -47 -55 -50 -23 -100 -71 -172 -164 -18 -23 -33 -46 -33 -50 0 -5 -13 -2
-30 6 -38 20 -64 11 -96 -31 -21 -28 -29 -33 -44 -25 -10 6 -37 10 -58 10 -33
0 -45 -6 -66 -31 -14 -17 -26 -35 -26 -40 0 -5 19 -18 43 -28 23 -10 54 -31
70 -46 23 -24 27 -36 27 -85 0 -49 -5 -63 -33 -101 -43 -56 -80 -123 -96 -172
-12 -34 -16 -38 -37 -33 -13 3 -35 9 -49 12 -34 8 -105 -12 -140 -40 l-28 -22
51 -33 c89 -57 140 -165 97 -207 -13 -14 -11 -44 4 -44 4 0 5 -31 3 -68 -2
-37 1 -84 6 -105 10 -36 10 -36 -32 -56 -23 -11 -49 -34 -59 -51 l-18 -30 27
-11 c40 -15 91 -71 119 -131 14 -29 25 -59 25 -65 0 -10 -67 -13 -300 -13
l-301 0 4 -1152 3 -1153 23 -70 c54 -161 142 -295 297 -451 238 -237 600 -453
846 -503 49 -10 67 -9 138 8 307 77 740 378 949 661 72 96 109 166 148 277
l28 78 0 1150 0 1150 -247 3 c-189 2 -248 5 -248 15 0 21 46 111 73 143 15 18
43 39 62 48 l35 17 -17 31 c-10 16 -33 38 -52 48 l-34 17 -1 104 c-1 81 2 107
14 116 13 10 12 14 -4 32 -40 45 5 136 97 196 25 17 45 35 43 40 -1 6 -22 20
-47 32 -46 24 -142 32 -154 13 -11 -18 -23 -11 -30 18 -9 40 -84 192 -94 192
-17 0 -41 69 -41 118 0 60 22 91 85 122 25 12 45 26 45 30 0 5 -12 22 -26 39
-21 25 -33 31 -66 31 -21 0 -48 -4 -58 -10 -14 -8 -22 -3 -41 25 -28 41 -60
51 -100 31 -22 -11 -29 -12 -29 -2 0 7 -9 21 -21 32 -12 10 -30 37 -41 59 -27
52 -71 92 -135 122 -48 22 -53 28 -53 57 0 22 -8 40 -25 56 -14 13 -25 34 -25
47 0 20 5 23 40 23 33 0 40 3 40 20 0 17 -7 20 -40 20 -39 0 -40 1 -40 34 0
47 -9 66 -31 66 -14 0 -18 -9 -21 -47z m46 -199 c22 -21 3 -56 -27 -52 -25 3
-34 32 -17 53 16 19 25 19 44 -1z m100 -123 c42 -18 106 -82 106 -104 0 -7 -9
-21 -21 -31 -20 -17 -22 -17 -43 2 -11 11 -34 24 -51 29 -21 7 -31 18 -37 41
-5 18 -23 43 -43 58 -31 23 -37 25 -53 13 -31 -25 -52 -52 -58 -75 -4 -14 -22
-31 -49 -44 -24 -12 -46 -28 -49 -37 -5 -13 -10 -11 -26 10 -26 33 -25 39 6
77 28 32 88 68 139 81 43 11 131 2 179 -20z m-99 -61 c8 -16 15 -40 15 -55 0
-18 5 -25 19 -25 11 0 32 -5 48 -11 l28 -11 -40 -13 c-48 -17 -65 -38 -65 -80
0 -88 143 -110 196 -30 l18 27 16 -32 c34 -65 123 -93 154 -48 24 35 20 85 -9
114 -18 18 -21 25 -10 22 17 -3 38 -35 55 -81 l10 -29 35 31 c35 30 68 40 79
22 3 -5 -9 -19 -27 -31 -47 -32 -68 -66 -72 -113 -2 -23 -6 -41 -9 -40 -151
42 -361 66 -526 60 -125 -5 -313 -31 -380 -52 -17 -5 -20 -2 -20 23 0 38 -36
91 -83 121 -20 13 -34 28 -31 32 11 18 44 8 79 -22 20 -18 37 -30 38 -28 2 2
12 26 23 54 13 33 26 51 39 53 17 2 18 1 4 -7 -40 -26 -48 -101 -13 -135 35
-35 126 -2 147 54 14 36 20 37 37 5 29 -55 126 -69 170 -25 48 48 28 112 -40
135 -34 11 -34 12 -13 23 12 7 33 12 46 12 22 0 25 4 24 35 -1 28 24 75 39 75
2 0 10 -13 19 -30z m-259 -111 c8 -14 -21 -43 -35 -35 -19 12 -13 46 8 46 11
0 23 -5 27 -11z m514 -8 c0 -24 -25 -34 -40 -16 -15 18 -5 35 21 35 12 0 19
-7 19 -19z m-375 -43 c43 -20 26 -68 -25 -68 -33 0 -70 26 -70 50 0 30 48 39
95 18z m281 -2 c19 -14 19 -15 -5 -40 -28 -30 -71 -34 -95 -10 -21 21 -20 30
6 48 28 20 68 20 94 2z m-476 -25 c0 -21 -43 -61 -66 -61 -19 0 -24 5 -24 25
0 13 8 29 18 34 21 13 72 14 72 2z m664 -7 c18 -18 18 -17 10 -38 -13 -35 -84
-5 -84 36 0 23 51 25 74 2z m-129 -189 c178 -29 235 -45 235 -69 0 -8 12 -28
26 -43 27 -30 94 -143 94 -160 0 -6 -11 -14 -24 -17 -56 -14 -75 -81 -36 -126
24 -28 25 -34 4 -54 -23 -24 -42 -19 -60 15 -15 31 -23 32 -65 15 -10 -4 -23
0 -33 9 -20 21 -20 29 0 50 18 18 52 12 71 -13 11 -13 13 -13 19 2 11 29 -4
88 -31 116 -14 14 -25 38 -25 52 0 41 -20 87 -41 93 -27 9 -63 -16 -83 -59
-11 -23 -24 -36 -36 -36 -23 0 -80 -47 -80 -66 0 -25 -18 -15 -25 14 -8 32
-32 61 -61 72 -12 5 -24 21 -27 37 -3 16 -15 41 -27 56 -33 41 -60 33 -90 -29
-14 -28 -40 -63 -57 -78 -18 -15 -36 -42 -41 -59 l-8 -31 -21 36 c-13 23 -34
41 -57 49 -20 7 -38 21 -42 31 -10 31 -55 78 -75 78 -21 0 -58 -66 -59 -103 0
-10 -12 -28 -26 -41 -21 -17 -28 -34 -32 -74 l-5 -53 32 18 c35 21 64 10 69
-25 5 -30 -29 -45 -56 -27 -26 19 -48 10 -56 -21 -8 -30 -50 -33 -65 -5 -8 14
-6 25 10 45 14 18 19 37 17 63 -3 36 -9 42 -66 70 -8 3 50 103 82 142 20 24
36 51 36 61 0 20 5 22 100 43 201 45 420 52 615 22z m-215 -210 c0 -14 11 -25
33 -33 l32 -13 -27 -15 c-34 -18 -48 -43 -48 -83 0 -54 64 -96 109 -71 17 8
26 8 43 -5 31 -21 70 -19 102 6 20 16 26 29 26 60 0 39 -26 79 -52 79 -26 0
17 20 43 20 21 0 29 8 42 40 22 57 41 52 35 -8 -5 -46 -3 -49 24 -60 32 -12
38 -32 9 -32 -36 0 -71 -38 -71 -78 0 -49 32 -82 80 -82 25 0 43 -7 56 -21 19
-21 19 -22 -1 -16 -74 23 -269 39 -465 39 -233 0 -374 -14 -565 -57 -60 -14
-111 -25 -112 -25 -2 0 -3 11 -3 25 0 40 -39 111 -81 150 -22 20 -37 40 -34
45 11 18 81 11 100 -10 23 -25 26 -25 59 5 48 45 101 21 57 -26 -25 -27 -27
-75 -6 -106 24 -34 80 -40 115 -14 17 12 44 21 65 21 93 0 112 120 25 162
l-35 17 31 12 c29 12 31 15 27 50 -3 20 -1 45 5 55 9 16 11 14 26 -14 9 -17
16 -41 16 -53 0 -17 4 -20 23 -16 12 4 28 2 36 -3 11 -6 8 -13 -14 -33 -76
-65 11 -189 93 -132 16 12 27 13 41 5 33 -17 61 -11 92 19 47 47 33 120 -26
135 -32 8 -25 22 15 31 23 5 30 12 30 30 0 13 5 36 11 52 l11 28 14 -30 c7
-16 13 -39 14 -50z m-105 -108 c13 -10 16 -21 11 -40 -7 -30 -36 -36 -56 -12
-18 21 -45 19 -62 -7 -18 -27 -68 -19 -68 12 0 26 47 57 63 41 15 -15 42 -14
57 4 15 19 31 19 55 2z m217 -4 c14 -13 23 -14 41 -6 17 8 30 7 50 -3 31 -17
34 -35 11 -58 -17 -18 -50 -7 -61 20 -7 19 -37 18 -53 -1 -16 -20 -49 -16 -64
7 -8 13 -6 22 8 37 23 25 43 27 68 4z m486 -38 c23 -29 57 -33 71 -8 6 12 22
18 50 18 50 0 63 -13 33 -33 -33 -22 -78 -91 -91 -140 -7 -23 -17 -42 -24 -42
-26 1 -161 39 -141 39 12 1 33 10 48 22 32 25 35 79 7 116 -11 13 -17 31 -14
39 8 22 40 17 61 -11z m-382 -175 c120 -12 274 -40 374 -68 l65 -19 9 -63 c12
-90 -6 -165 -43 -185 -29 -14 -51 -6 -51 20 0 25 -56 65 -90 65 -23 0 -43 -9
-62 -27 l-28 -27 0 33 c0 43 -38 81 -81 81 -23 0 -40 -9 -62 -32 l-30 -33 -32
32 c-17 17 -50 36 -73 42 -34 10 -42 16 -42 35 0 28 -36 82 -72 109 l-27 20
-33 -25 c-34 -26 -48 -49 -64 -103 -7 -21 -17 -31 -39 -35 -41 -9 -83 -38
-100 -69 l-13 -26 -7 28 c-7 28 -48 57 -80 57 -9 0 -29 -7 -45 -15 -23 -12
-31 -25 -36 -55 l-6 -40 -20 25 c-15 20 -29 25 -63 25 -36 0 -48 -5 -68 -30
-14 -16 -28 -39 -32 -50 -8 -26 -21 -25 -49 3 -36 36 -52 123 -37 191 12 55
12 55 64 70 85 24 255 55 357 65 137 12 389 13 516 1z m-212 -102 c9 -12 19
-44 22 -70 6 -45 8 -48 36 -48 34 0 100 -28 93 -40 -2 -4 -24 -10 -47 -13 -47
-6 -98 -51 -98 -87 0 -91 118 -143 201 -87 19 12 45 44 59 70 21 39 23 50 13
67 -30 48 3 94 45 64 29 -20 28 -40 -3 -60 -73 -47 15 -194 116 -194 46 0 70
26 76 84 5 42 3 48 -29 80 -25 25 -31 37 -22 40 8 3 21 3 29 0 15 -6 65 -99
65 -121 0 -19 14 -16 36 8 40 44 95 60 127 36 16 -11 14 -17 -30 -62 -27 -28
-60 -76 -73 -107 -15 -34 -31 -58 -40 -58 -9 0 -56 9 -105 19 -307 67 -714 67
-1017 1 -51 -11 -97 -20 -103 -20 -5 0 -23 30 -39 65 -18 41 -45 80 -74 107
-42 38 -44 42 -27 55 35 25 76 13 127 -35 15 -14 29 -24 31 -21 2 2 11 25 20
50 20 54 59 94 82 85 13 -5 9 -12 -20 -41 -42 -42 -47 -90 -14 -136 26 -37 80
-40 130 -6 74 50 106 147 54 167 -31 12 -34 54 -5 70 15 8 24 6 40 -10 22 -22
25 -36 10 -45 -16 -10 -11 -68 9 -101 48 -79 159 -98 221 -39 66 63 17 165
-78 165 -22 0 -32 4 -30 13 7 19 49 37 91 37 36 0 37 1 37 36 0 48 27 104 51
104 10 0 25 -10 33 -22z m-149 -224 c45 -29 42 -65 -7 -90 -18 -9 -41 -13 -57
-9 -29 6 -75 48 -83 75 -11 34 103 53 147 24z m350 5 c4 -6 13 -8 21 -5 17 7
18 -8 2 -37 -25 -48 -77 -72 -123 -57 -58 19 -63 68 -10 98 25 14 102 15 110
1z m-607 -42 c8 -40 -73 -106 -112 -91 -22 8 -21 67 2 86 35 31 105 34 110 5z
m853 0 c23 -14 26 -69 5 -87 -23 -18 -81 14 -101 57 -14 29 -15 37 -4 44 16
11 73 3 100 -14z m-207 -232 c73 -9 146 -20 162 -25 17 -5 -157 -8 -441 -8
-483 0 -526 5 -287 32 162 19 407 19 566 1z m826 -397 l0 -278 -545 0 -545 0
0 278 0 277 545 0 545 0 0 -277z m-2152 260 c17 -17 15 -45 -5 -78 -15 -27
-15 -29 5 -55 12 -15 22 -32 22 -36 0 -5 -38 -9 -85 -9 -94 0 -107 11 -60 52
l24 21 -19 28 c-41 56 -21 89 55 89 28 0 56 -5 63 -12z m490 0 c17 -17 15 -63
-3 -78 -20 -17 -19 -33 5 -55 40 -36 26 -45 -65 -45 -47 0 -85 4 -85 9 0 5 12
23 26 40 l25 30 -20 23 c-23 24 -27 58 -9 76 7 7 35 12 63 12 28 0 56 -5 63
-12z m456 -7 c18 -19 14 -43 -12 -74 -14 -16 -13 -20 6 -47 12 -16 22 -34 22
-40 0 -14 -157 -13 -166 1 -3 6 6 23 21 39 l27 29 -21 27 c-42 53 -22 84 54
84 38 0 56 -5 69 -19z m-234 -921 c0 -693 0 -700 -20 -700 -11 0 -20 -4 -20
-8 0 -5 9 -17 20 -27 20 -18 29 -85 12 -85 -4 0 -34 27 -67 60 -33 33 -54 60
-47 60 7 0 12 11 12 24 0 37 21 90 43 109 l21 19 -19 36 c-11 20 -36 47 -55
60 -32 21 -43 23 -120 19 -101 -6 -141 7 -169 54 -19 31 -20 31 -32 11 -13
-20 -14 -20 -32 -4 -27 24 -37 2 -37 -81 0 -67 0 -68 30 -74 54 -10 73 -63 51
-141 -9 -28 -7 -32 10 -32 13 0 93 -73 220 -201 186 -187 199 -203 199 -237 0
-37 -1 -36 -238 201 -235 235 -238 237 -280 237 l-42 0 0 700 0 700 280 0 280
0 0 -700z m1440 -340 l0 -270 -545 0 -545 0 0 270 0 270 545 0 545 0 0 -270z
m-2171 119 c25 -9 31 -17 31 -39 0 -15 -7 -33 -15 -40 -20 -17 -19 -32 5 -63
11 -14 20 -28 20 -31 0 -3 -38 -6 -85 -6 -47 0 -85 4 -85 8 0 5 11 22 25 38
l24 28 -20 22 c-28 30 -23 76 11 85 38 10 54 10 89 -2z m930 5 c46 -10 57 -37
32 -80 l-21 -36 20 -25 c11 -14 20 -30 20 -34 0 -5 -38 -9 -85 -9 -47 0 -85 3
-85 7 0 4 12 19 26 34 l26 27 -22 30 c-27 36 -23 62 10 79 29 15 36 15 79 7z
m-414 -437 l1 -57 107 -110 c101 -102 108 -112 105 -144 l-3 -36 -158 157
c-145 145 -157 160 -151 186 8 38 43 69 74 65 23 -3 25 -7 25 -61z m-60 -344
c255 -256 275 -279 275 -311 0 -20 -3 -32 -7 -29 -5 4 -131 130 -280 280 -245
244 -273 275 -273 305 0 17 2 32 5 32 3 0 129 -125 280 -277z m3 -175 c251
-252 272 -275 272 -307 l0 -35 -31 30 c-17 16 -143 141 -280 279 -228 229
-249 253 -249 284 0 19 3 31 8 28 4 -4 130 -130 280 -279z m-3 -167 c257 -257
275 -277 275 -310 l0 -36 -102 100 c-56 55 -182 180 -280 278 -165 165 -178
181 -178 214 0 20 2 34 5 32 2 -2 128 -127 280 -278z m-444 239 c24 -14 24
-51 0 -81 -19 -23 -19 -24 5 -52 13 -16 24 -33 24 -38 0 -5 -36 -9 -80 -9 -71
0 -80 2 -80 18 0 11 9 27 20 37 19 17 19 18 0 43 -23 28 -26 62 -8 80 15 15
92 16 119 2z m2155 -124 c-14 -137 -102 -313 -225 -448 l-25 -28 -418 0 -418
0 0 270 0 270 546 0 547 0 -7 -64z m-1706 -290 c150 -153 155 -164 35 -77
-125 91 -232 206 -280 301 -17 34 -15 33 41 -20 33 -30 124 -122 204 -204z
m-159 -26 c24 -14 24 -51 0 -81 -19 -23 -19 -24 5 -52 13 -16 24 -33 24 -38 0
-5 -41 -9 -90 -9 -84 0 -90 1 -81 18 5 9 18 26 30 36 20 19 20 19 1 44 -25 31
-26 68 -2 81 22 14 88 14 113 1z m665 -405 c11 -17 11 -24 -1 -45 -8 -14 -17
-31 -21 -38 -4 -7 3 -23 15 -36 37 -39 28 -46 -64 -46 -47 0 -85 4 -85 9 0 5
12 23 26 40 l26 31 -21 26 c-43 54 -19 86 63 81 36 -1 52 -7 62 -22z"/>
<path d="M8001 6744 c-16 -20 -38 -63 -48 -95 -17 -56 -19 -59 -51 -59 -18 0
-42 -5 -52 -10 -48 -26 -47 -165 3 -294 l11 -29 14 49 c13 47 37 84 53 84 19
0 39 -35 39 -70 0 -30 -6 -43 -30 -64 -34 -28 -86 -42 -122 -31 -60 18 -97 97
-64 134 9 10 16 35 16 58 0 34 -6 46 -31 67 -17 14 -41 26 -54 26 -34 0 -85
-46 -85 -77 l0 -25 -31 26 c-17 14 -39 26 -50 26 -13 0 -26 15 -40 45 -20 42
-79 105 -98 105 -17 0 -52 -72 -58 -118 -5 -35 -15 -54 -40 -78 -18 -17 -33
-36 -33 -41 0 -6 -17 -2 -39 9 -47 23 -83 17 -111 -19 -28 -36 -26 -88 5 -119
29 -29 31 -48 10 -98 -19 -44 -53 -55 -101 -33 -34 16 -41 36 -28 71 8 20 43
20 72 0 21 -15 22 -14 22 19 0 60 -40 118 -101 149 -49 25 -65 28 -160 28
-135 0 -166 -6 -173 -34 -4 -15 2 -26 22 -41 99 -72 179 -176 209 -272 17 -54
17 -56 -5 -95 -13 -21 -22 -49 -20 -61 1 -13 -10 -38 -25 -58 -15 -20 -27 -43
-27 -51 0 -9 20 -34 45 -56 25 -22 45 -43 45 -46 0 -3 -22 -6 -50 -6 l-50 0 0
-1096 c0 -747 4 -1118 11 -1167 11 -70 57 -207 87 -257 146 -243 366 -448 668
-623 194 -112 367 -180 459 -180 109 0 362 110 573 250 353 233 577 507 632
774 19 90 20 146 20 1197 l0 1102 -29 0 c-44 0 -45 14 -6 44 48 37 54 67 21
111 -22 29 -25 38 -16 55 9 17 7 28 -11 56 -47 77 6 199 141 327 82 77 88 86
76 103 -12 16 -30 19 -132 22 -130 4 -180 -6 -232 -44 -39 -30 -57 -65 -65
-122 l-5 -43 24 15 c43 29 84 14 84 -29 0 -29 -57 -60 -93 -51 -30 7 -57 51
-57 92 0 14 11 39 25 56 14 16 25 39 25 50 0 34 -32 77 -66 88 -32 11 -76 1
-88 -18 -8 -13 -86 66 -86 87 0 35 -30 118 -49 135 -19 17 -21 17 -50 -3 -17
-12 -43 -45 -58 -74 -17 -31 -36 -53 -48 -55 -11 -2 -31 -15 -46 -28 l-25 -24
-12 33 c-13 35 -56 67 -92 67 -12 0 -35 -13 -51 -29 -35 -36 -39 -86 -9 -124
28 -36 25 -70 -10 -107 -29 -31 -33 -32 -92 -28 -53 4 -65 9 -89 36 -16 18
-29 41 -29 53 0 29 28 79 44 79 18 0 42 -37 57 -91 l12 -44 20 60 c11 33 22
96 24 140 5 72 3 83 -17 108 -19 24 -29 28 -61 25 -36 -3 -39 -1 -45 27 -8 39
-41 103 -70 137 l-23 28 -30 -36z m78 -152 c6 -30 9 -58 5 -63 -8 -13 8 -11
49 6 44 18 42 18 61 -1 18 -17 22 -90 6 -114 -7 -12 -12 -12 -22 -2 -21 21
-72 14 -97 -12 -29 -30 -39 -103 -21 -147 21 -49 83 -82 156 -83 52 -1 66 3
98 28 21 15 42 39 48 51 10 23 11 22 42 -23 57 -87 131 -98 189 -30 53 62 25
149 -53 164 -16 4 -30 10 -30 15 0 15 44 39 72 39 23 0 29 6 38 39 5 21 20 51
32 66 l21 27 13 -23 c7 -13 13 -48 14 -76 0 -41 4 -53 15 -53 17 0 65 -43 65
-58 0 -5 -21 -9 -47 -9 -62 0 -93 -33 -93 -100 0 -38 5 -50 34 -79 25 -25 43
-34 68 -34 46 0 98 29 124 68 l22 32 7 -40 c8 -50 42 -101 79 -119 51 -24 136
13 157 68 16 40 -6 86 -51 108 -38 18 -38 18 -21 39 39 49 146 75 244 60 l46
-7 -68 -67 c-76 -76 -137 -183 -147 -263 -4 -27 -10 -49 -15 -49 -5 0 -26 6
-46 14 -43 16 -216 59 -308 75 -202 37 -465 61 -670 61 -153 0 -464 -21 -584
-40 -36 -6 -95 -15 -131 -21 -93 -15 -293 -58 -375 -80 -82 -22 -78 -22 -70
-9 11 18 -16 111 -51 180 -19 37 -61 93 -98 130 -43 43 -60 67 -53 72 18 11
119 10 178 -3 50 -11 126 -65 104 -75 -47 -20 -75 -46 -80 -76 -10 -53 9 -86
61 -109 86 -38 149 -2 175 100 l13 50 18 -29 c37 -62 126 -89 176 -54 46 32
64 97 41 148 -15 31 -72 60 -105 52 -16 -4 -24 -2 -24 7 0 16 37 51 63 60 13
5 17 18 17 54 0 61 9 95 24 90 16 -5 56 -79 56 -104 0 -19 6 -23 29 -23 17 0
42 -10 57 -24 l28 -23 -37 -7 c-106 -20 -100 -170 8 -206 30 -10 40 -9 67 7
38 22 65 57 83 109 8 22 14 31 15 19 1 -60 75 -115 153 -115 133 0 211 128
136 224 -16 20 -29 26 -59 26 -21 0 -42 -5 -45 -10 -13 -22 -25 3 -25 54 0 71
15 84 70 62 22 -9 42 -16 44 -16 2 0 7 26 11 57 4 32 16 76 27 97 l20 40 18
-34 c10 -19 23 -59 29 -88z m-359 -152 c21 -39 -9 -78 -51 -65 -42 14 -29 85
16 85 14 0 29 -8 35 -20z m690 5 c17 -20 4 -62 -21 -70 -15 -5 -28 -1 -42 14
-18 17 -19 24 -9 46 13 29 52 34 72 10z m87 -118 c53 -6 76 -24 76 -63 0 -29
-35 -63 -66 -64 -47 0 -104 112 -75 147 12 14 13 14 16 1 2 -10 19 -17 49 -21z
m-1306 13 c35 -19 19 -80 -21 -80 -26 0 -52 34 -43 56 12 33 32 41 64 24z
m445 -65 c-22 -57 -57 -82 -94 -69 -31 11 -54 51 -46 81 7 25 43 43 89 43 21
0 35 5 35 12 0 8 6 6 17 -4 15 -16 15 -20 -1 -63z m1292 63 c16 -16 15 -53 -3
-68 -19 -16 -45 -10 -61 15 -26 39 31 86 64 53z m-1564 -61 c26 -19 18 -75
-15 -99 -21 -16 -30 -17 -54 -8 -35 13 -67 48 -63 69 4 19 64 51 94 51 11 0
28 -6 38 -13z m1416 3 c19 -5 41 -19 48 -31 13 -20 11 -25 -15 -50 -42 -42
-76 -47 -107 -15 -30 29 -33 61 -9 88 18 20 33 22 83 8z m-837 -282 c-45 -49
-47 -63 -13 -102 17 -18 30 -36 30 -40 0 -3 -31 -6 -69 -6 -38 0 -133 -7 -212
-15 -78 -8 -144 -14 -146 -12 -2 2 6 15 17 30 29 37 25 61 -17 100 l-37 35 60
8 c98 12 316 31 368 33 l50 1 -31 -32z m427 22 c63 -5 139 -13 169 -16 l54 -7
-37 -34 c-20 -19 -37 -40 -37 -46 -3 -24 3 -42 19 -60 8 -9 13 -20 10 -23 -4
-3 -50 -1 -105 5 -100 10 -269 20 -357 21 l-50 0 27 28 c36 37 34 69 -5 109
l-32 33 115 0 c62 0 166 -5 229 -10z m485 -70 c55 -12 118 -28 140 -35 22 -7
61 -19 88 -26 26 -7 47 -16 47 -19 0 -3 -16 -21 -35 -40 -39 -37 -43 -59 -19
-95 l15 -23 -48 14 c-77 24 -283 72 -341 79 l-54 7 31 32 c30 31 40 69 21 81
-5 3 -18 18 -29 34 l-20 27 52 -7 c29 -4 97 -17 152 -29z m-1421 15 c-4 -8 -9
-15 -13 -15 -4 0 -15 -13 -24 -30 -20 -34 -13 -56 28 -88 32 -25 32 -32 -3
-32 -43 0 -392 -75 -448 -97 -12 -4 -9 5 11 35 30 45 26 63 -19 97 -14 11 -26
23 -26 27 0 9 79 31 225 62 302 65 276 61 269 41z m1041 -201 c195 -21 476
-74 500 -96 5 -4 -409 -8 -920 -8 -515 0 -925 4 -920 9 6 4 73 20 150 35 77
15 149 29 160 31 82 16 308 38 450 44 224 8 408 3 580 -15z m-457 -516 l-3
-353 -292 -3 -293 -2 0 -365 0 -365 -280 0 -280 0 0 365 0 365 280 0 280 0 0
355 0 355 295 0 295 0 -2 -352z m62 -368 c0 -713 0 -720 -20 -720 -20 0 -20 7
-20 720 0 713 0 720 20 720 20 0 20 -7 20 -720z m138 -2 l2 -718 -35 0 -35 0
0 721 0 720 33 -3 32 -3 3 -717z m132 2 l0 -720 -30 0 -30 0 0 720 0 720 30 0
30 0 0 -720z m130 0 l0 -720 -30 0 -30 0 0 720 0 720 30 0 30 0 0 -720z m120
0 l0 -720 -25 0 -25 0 0 720 0 720 25 0 25 0 0 -720z m80 663 c0 -31 -2 -54
-4 -52 -2 2 -14 28 -25 57 l-21 52 25 0 c24 0 25 -3 25 -57z m127 -143 c1
-107 0 -202 -3 -210 -4 -9 -17 13 -34 55 -27 65 -29 79 -29 213 l-1 143 33 -3
32 -3 2 -195z m133 -110 c0 -264 -2 -316 -16 -342 -18 -34 -27 -29 -42 22 -10
35 -16 606 -6 622 3 4 18 8 35 8 l29 0 0 -310z m130 167 c0 -136 -1 -146 -30
-212 l-29 -70 -1 213 0 212 30 0 30 0 0 -143z m100 121 c-1 -13 -9 -39 -20
-58 l-19 -35 -1 58 c0 50 2 57 20 57 14 0 20 -7 20 -22z m-497 -128 c25 -63
85 -213 133 -334 48 -120 87 -223 87 -230 0 -12 -84 -232 -202 -526 l-70 -175
-1 694 c0 382 2 692 4 690 2 -2 24 -56 49 -119z m-1483 0 c0 -103 1 -110 20
-110 18 0 20 7 20 55 l0 55 35 0 35 0 0 -214 0 -215 23 -3 c17 -2 23 -11 25
-35 l3 -33 -95 0 -95 0 -3 138 c-3 135 -3 137 -26 140 -46 7 -52 -11 -52 -149
l0 -129 -90 0 -90 0 0 35 c0 31 3 35 25 35 l25 0 0 215 0 215 29 0 c29 0 30
-2 33 -52 2 -41 7 -54 21 -56 15 -3 17 7 17 107 l0 111 70 0 70 0 0 -110z
m1979 -572 c0 -552 -2 -629 -14 -603 -35 74 -235 591 -235 607 0 9 33 99 73
200 41 101 95 238 121 306 27 67 50 122 52 122 2 0 4 -285 3 -632z m-240 -77
c7 -22 11 -137 11 -337 l0 -304 -35 0 -34 0 1 308 c1 246 4 315 16 345 16 42
23 40 41 -12z m-1127 -3 c2 -13 3 -62 3 -110 0 -78 2 -88 17 -88 15 0 18 9 18
50 l0 50 35 0 35 0 0 -215 0 -215 25 0 c22 0 25 -4 25 -35 l0 -35 -90 0 -90 0
0 134 c0 146 -6 164 -55 152 l-25 -6 0 -140 0 -140 -90 0 c-53 0 -90 4 -91 10
-5 46 -2 55 19 58 22 3 22 4 22 218 l0 214 35 0 35 0 0 -50 c0 -43 3 -50 20
-50 19 0 20 7 20 110 l0 110 64 0 c58 0 64 -2 68 -22z m1008 -428 l-1 -210
-35 0 -34 0 0 138 c0 125 2 143 27 210 15 39 31 72 36 72 4 0 7 -94 7 -210z
m260 -67 l0 -143 -30 0 -30 0 0 213 1 212 29 -70 c29 -66 30 -76 30 -212z
m-394 -140 c-2 -3 -13 -3 -24 -1 -20 3 -20 4 2 58 l21 55 3 -54 c2 -29 1 -55
-2 -58z m494 20 c0 -16 -6 -23 -20 -23 -18 0 -20 7 -20 58 l1 57 19 -35 c11
-19 19 -45 20 -57z m-2281 -455 c-1 -357 -3 -406 -14 -363 -9 36 -13 153 -14
413 -1 315 1 362 14 362 13 0 15 -52 14 -412z m132 400 c4 -39 5 -1036 1
-1051 -4 -14 -11 -9 -33 25 l-29 43 0 498 0 497 30 0 c17 0 31 -6 31 -12z
m139 -610 l-1 -623 -34 39 -35 39 0 577 c0 317 3 580 7 583 3 4 19 7 35 7 l28
0 0 -622z m130 -60 l0 -682 -30 29 -30 29 0 653 0 653 30 0 30 0 0 -682z m130
-43 c0 -399 -3 -725 -8 -725 -4 0 -18 7 -30 16 l-22 15 0 703 c0 386 3 706 7
709 3 4 17 7 30 7 l23 0 0 -725z m70 658 l-1 -68 -20 50 c-33 86 -33 85 -5 85
25 0 26 -2 26 -67z m140 -170 c0 -130 -2 -234 -4 -232 -2 2 -18 39 -35 82 -30
74 -31 84 -31 226 0 81 3 151 7 154 3 4 19 7 35 7 l28 0 0 -237z m128 -83 c3
-299 -4 -400 -28 -400 -25 0 -30 66 -30 386 l0 335 28 -3 27 -3 3 -315z m132
158 c0 -157 -1 -166 -29 -238 l-30 -75 -3 233 c-2 129 -1 236 1 238 2 2 17 4
33 4 l28 0 0 -162z m120 149 c0 -8 -11 -40 -25 -73 l-24 -59 -1 73 c0 70 1 72
25 72 14 0 25 -6 25 -13z m1160 -367 l0 -380 -288 0 -287 0 1 -347 c0 -192 -2
-354 -4 -360 -2 -7 -9 -13 -14 -13 -11 0 -128 80 -128 88 0 3 8 11 18 18 14
11 17 26 14 106 -4 102 18 231 44 259 11 12 13 29 8 73 -4 32 -11 55 -17 53
-25 -8 -50 -59 -63 -127 -14 -77 -25 -97 -43 -86 -17 11 -13 74 10 155 11 41
19 88 17 105 -3 30 -5 31 -50 31 -39 0 -49 -4 -57 -22 -6 -12 -23 -29 -39 -37
-34 -17 -48 -72 -30 -112 6 -13 8 -27 5 -30 -10 -10 -36 15 -65 61 -30 47 -47
65 -61 65 -15 0 -13 -30 4 -60 16 -28 20 -86 6 -94 -11 -7 -53 72 -85 162 -44
123 -69 111 252 114 l277 3 3 378 2 377 285 0 285 0 0 -380z m-1580 -52 l129
-322 -124 -311 c-68 -170 -130 -326 -139 -345 -14 -32 -15 26 -15 660 0 476 4
686 11 668 5 -16 68 -173 138 -350z m778 255 c2 -105 4 -113 22 -113 18 0 20
7 20 55 l0 55 35 0 35 0 0 -214 0 -215 23 -3 c17 -2 23 -11 25 -35 l3 -33 -95
0 -96 0 0 135 c0 118 -2 135 -17 143 -10 6 -28 6 -40 1 -22 -8 -23 -13 -23
-144 l0 -135 -90 0 -90 0 0 35 c0 31 3 35 25 35 l25 0 0 215 0 215 29 0 c29 0
30 -2 33 -52 2 -41 7 -54 21 -56 15 -3 17 7 17 113 l0 116 68 -3 67 -3 3 -112z
m-373 -679 c-31 -92 -115 -238 -128 -224 -6 7 -127 312 -127 321 0 11 209 545
256 654 5 12 10 -130 12 -343 2 -302 0 -371 -13 -408z m-249 31 c10 -26 14
-80 14 -218 l0 -183 -30 -29 -30 -29 0 216 c0 190 8 278 26 278 3 0 12 -16 20
-35z m1204 -85 c0 -103 1 -110 20 -110 18 0 20 7 20 56 l0 55 33 -3 c31 -3 32
-5 35 -51 3 -44 -1 -54 -47 -115 -27 -37 -59 -76 -70 -86 -21 -19 -21 -19 -21
2 0 15 -8 24 -25 28 -41 10 -55 -10 -55 -81 l0 -63 -77 -66 c-43 -36 -84 -66
-91 -66 -9 0 -12 11 -10 33 2 24 8 33 26 35 l22 3 0 215 0 214 30 0 c30 0 30
-1 30 -55 0 -48 2 -55 20 -55 19 0 20 7 20 110 l0 110 70 0 70 0 0 -110z
m-879 -35 c19 -44 61 -120 94 -170 66 -100 226 -267 323 -338 l63 -46 -58 -38
c-92 -58 -280 -148 -373 -178 -96 -30 -127 -29 -238 9 -108 38 -403 189 -401
206 0 3 41 37 90 75 205 160 377 374 436 543 13 39 20 48 24 35 4 -10 22 -54
40 -98z m-468 -432 c-16 -12 -31 -22 -35 -23 -5 0 -8 45 -8 100 0 90 3 109 33
183 l32 82 3 -159 3 -160 -28 -23z m242 255 c-14 -22 -15 -20 -15 27 l1 50 15
-28 c13 -24 13 -30 -1 -49z m414 -23 l23 -23 -22 -7 c-22 -7 -35 4 -61 48 -9
17 -8 18 13 12 12 -4 34 -17 47 -30z m167 -171 c-12 -31 -37 -27 -77 12 -42
41 -49 67 -22 83 14 8 26 1 61 -36 25 -26 41 -51 38 -59z m-948 -155 c-37 -28
-37 -22 4 76 l12 30 4 -44 c3 -37 -1 -48 -20 -62z"/>
<path d="M7767 5542 c-15 -2 -32 -12 -38 -23 -5 -11 -24 -29 -42 -39 -26 -16
-32 -27 -34 -59 -1 -22 2 -43 7 -46 13 -8 13 -45 1 -45 -5 0 -32 32 -60 70
-28 39 -55 70 -61 70 -19 0 -19 -20 1 -64 25 -58 19 -103 -17 -116 -13 -5 -24
-16 -24 -24 0 -16 50 -36 90 -36 25 0 80 -33 80 -48 0 -4 -15 -17 -34 -29 -29
-19 -34 -27 -39 -79 -4 -35 -14 -69 -27 -86 -11 -16 -18 -33 -15 -38 13 -21
43 -8 66 28 13 20 34 41 45 46 13 6 27 27 35 55 18 59 50 68 74 22 8 -17 22
-31 29 -31 25 0 25 -29 1 -59 -33 -38 -32 -61 1 -61 39 0 86 37 78 62 -22 72
6 289 43 326 9 10 11 29 7 70 -4 31 -9 59 -11 61 -2 3 -15 -6 -28 -20 -18 -18
-30 -48 -43 -114 -13 -62 -23 -90 -33 -90 -21 0 -23 70 -3 145 24 94 24 141
-1 149 -11 4 -32 5 -48 3z"/>
<path d="M7181 4813 c-13 -3 -35 -18 -48 -33 -13 -16 -32 -32 -42 -35 -14 -4
-18 -16 -18 -48 -1 -23 4 -50 9 -61 7 -12 6 -22 0 -28 -7 -7 -27 12 -62 61
-49 67 -80 89 -80 57 0 -7 7 -27 15 -42 8 -16 15 -46 15 -67 0 -30 -5 -40 -25
-49 -29 -13 -33 -44 -7 -52 9 -3 38 -8 64 -11 30 -5 54 -15 69 -31 l22 -23
-36 -21 c-31 -18 -37 -28 -42 -68 -10 -76 -15 -92 -34 -111 -14 -14 -16 -22
-8 -30 21 -21 42 -11 69 34 18 30 34 45 48 45 13 0 20 7 20 20 0 59 60 107 75
60 4 -11 17 -28 31 -36 31 -21 30 -41 -2 -71 -14 -13 -24 -29 -21 -36 6 -18
42 -20 74 -4 28 15 28 15 29 124 0 116 17 218 40 244 10 11 14 37 12 81 -2 66
-2 66 -24 52 -27 -18 -40 -49 -59 -138 -17 -83 -29 -100 -47 -62 -10 24 -8 44
16 142 36 140 31 153 -53 137z"/>
<path d="M8666 5152 c-3 -5 1 -32 8 -60 12 -43 12 -54 0 -69 -16 -22 -20 -198
-4 -188 6 3 10 15 10 26 0 12 5 19 13 16 13 -4 17 -106 6 -192 -4 -27 -3 -54
1 -58 4 -5 11 13 14 40 10 69 15 83 33 83 13 0 15 11 11 65 -4 65 2 80 21 48
8 -14 10 -2 10 47 -1 92 -9 114 -42 118 -31 4 -35 26 -12 59 16 23 15 23 -37
56 -15 9 -29 13 -32 9z"/>
<path d="M7104 5467 c-3 -8 -4 -45 -2 -83 2 -53 6 -69 18 -69 12 0 16 17 18
83 2 69 0 82 -13 82 -9 0 -18 -6 -21 -13z"/>
<path d="M6970 5215 c0 -42 3 -55 15 -55 12 0 15 13 15 55 0 42 -3 55 -15 55
-12 0 -15 -13 -15 -55z"/>
<path d="M7250 5215 c0 -42 3 -55 15 -55 12 0 15 13 15 55 0 42 -3 55 -15 55
-12 0 -15 -13 -15 -55z"/>
<path d="M9088 5139 c-45 -23 -52 -33 -33 -49 8 -7 15 -23 15 -36 0 -19 -5
-24 -24 -24 -30 0 -36 -16 -42 -110 -5 -66 -4 -73 9 -57 24 29 28 20 21 -42
-6 -53 -4 -60 14 -70 15 -8 23 -26 28 -59 19 -131 24 -67 11 152 -3 38 16 44
30 9 9 -24 11 -15 12 60 1 52 -4 95 -11 106 -9 15 -9 32 2 75 7 31 11 58 9 60
-2 2 -21 -4 -41 -15z"/>
<path d="M7720 4650 c0 -73 2 -80 20 -80 18 0 20 7 20 80 0 73 -2 80 -20 80
-18 0 -20 -7 -20 -80z"/>
<path d="M7584 4517 c-11 -29 0 -102 16 -102 19 0 22 106 3 112 -7 3 -16 -2
-19 -10z"/>
<path d="M7862 4473 c4 -81 28 -85 28 -4 0 48 -3 61 -15 61 -13 0 -15 -11 -13
-57z"/>
<path d="M8933 4060 c-18 -3 -41 -17 -52 -32 -12 -15 -30 -29 -40 -33 -21 -6
-37 -83 -20 -99 12 -13 12 -46 -1 -46 -6 0 -25 21 -43 47 -55 79 -74 99 -86
87 -8 -7 -5 -23 10 -53 27 -56 20 -107 -17 -121 -13 -5 -24 -16 -24 -24 0 -16
50 -36 90 -36 27 0 80 -33 80 -50 0 -4 -15 -17 -33 -28 -31 -18 -35 -25 -40
-76 -3 -32 -15 -72 -26 -91 -21 -37 -19 -45 14 -45 15 0 26 9 35 29 14 35 47
67 57 57 4 -4 14 14 23 40 18 57 46 79 64 49 6 -11 23 -31 39 -46 33 -33 34
-42 2 -63 -27 -18 -33 -53 -11 -62 8 -3 31 3 53 14 l38 20 -3 98 c-4 110 18
235 44 261 11 11 14 26 10 46 -3 16 -6 42 -6 58 0 21 -4 27 -14 23 -27 -10
-49 -57 -65 -138 -11 -58 -20 -81 -31 -81 -24 0 -24 75 -1 158 36 127 28 150
-46 137z"/>
<path d="M7504 3606 c4 -34 2 -65 -4 -77 -6 -10 -9 -52 -7 -92 2 -52 5 -66 11
-49 11 29 32 23 29 -9 -1 -13 -4 -69 -7 -124 l-4 -100 17 70 c10 42 22 69 29
68 8 -2 12 17 12 60 1 57 2 60 15 43 14 -18 15 -16 15 26 0 75 -10 109 -36
119 -25 9 -32 37 -13 56 15 15 5 30 -33 49 l-31 16 7 -56z"/>
<path d="M8280 3910 c0 -73 2 -80 20 -80 18 0 20 7 20 80 0 73 -2 80 -20 80
-18 0 -20 -7 -20 -80z"/>
<path d="M8150 3725 c0 -42 3 -55 15 -55 12 0 15 13 15 55 0 42 -3 55 -15 55
-12 0 -15 -13 -15 -55z"/>
<path d="M8430 3725 c0 -42 3 -55 15 -55 12 0 15 13 15 55 0 42 -3 55 -15 55
-12 0 -15 -13 -15 -55z"/>
<path d="M7898 3639 c-37 -19 -48 -34 -28 -41 5 -1 11 -14 12 -28 2 -19 -2
-26 -19 -28 -26 -4 -32 -18 -40 -94 -4 -40 -2 -58 6 -58 6 0 11 5 11 10 0 6 5
10 10 10 7 0 8 -18 4 -52 -6 -43 -4 -53 12 -65 11 -8 24 -37 31 -71 10 -53 11
-48 7 66 -4 120 2 144 24 100 9 -19 11 -8 11 58 1 48 -4 85 -10 91 -9 9 -9 23
1 57 17 60 12 68 -32 45z"/>
<path d="M8862 3173 c3 -65 6 -78 21 -81 15 -3 17 6 17 77 0 75 -2 81 -20 81
-19 0 -21 -5 -18 -77z"/>
<path d="M8730 2995 c0 -42 3 -55 15 -55 12 0 15 13 15 55 0 42 -3 55 -15 55
-12 0 -15 -13 -15 -55z"/>
<path d="M7981 3016 c-8 -9 -21 -16 -30 -16 -13 0 -17 -9 -18 -35 -1 -26 -9
-41 -32 -61 -47 -39 -42 -102 13 -163 l21 -23 -39 16 c-67 28 -186 15 -186
-20 0 -25 51 -72 101 -93 50 -22 53 -22 122 -7 86 20 89 17 85 -74 -3 -63 -2
-65 23 -68 37 -4 53 21 59 92 4 54 8 61 27 64 12 2 44 23 72 48 36 32 57 44
80 44 37 0 41 20 11 50 -34 34 -79 26 -155 -26 -36 -25 -69 -43 -72 -41 -12
13 10 44 47 65 82 46 85 91 11 154 -34 29 -45 47 -50 88 -1 3 -9 6 -18 7 -10
1 -27 4 -39 8 -13 4 -25 1 -33 -9z"/>
<path d="M2820 10328 c-66 -11 -140 -52 -195 -105 -131 -129 -132 -313 -3
-442 66 -66 110 -85 195 -85 120 1 227 66 304 186 29 44 33 61 37 133 5 100
-13 149 -85 226 -69 74 -155 104 -253 87z m66 -101 c78 -40 155 -168 162 -269
8 -103 -61 -180 -160 -180 -26 1 -60 8 -75 16 -75 38 -166 180 -179 276 -4 35
0 55 18 89 48 93 136 119 234 68z"/>
<path d="M8469 10120 c-140 -94 -253 -174 -251 -178 2 -4 16 -15 30 -24 27
-17 28 -17 101 39 l73 55 77 -53 c42 -29 78 -54 80 -56 4 -3 -25 -125 -39
-159 -7 -19 -2 -26 43 -55 29 -19 57 -37 63 -41 8 -5 17 18 27 70 14 67 45
211 77 362 5 25 16 74 24 110 14 63 14 65 -7 82 -12 10 -27 18 -33 18 -6 0
-125 -77 -265 -170z m167 13 c-3 -10 -13 -52 -22 -93 -9 -41 -18 -77 -19 -78
-6 -6 -114 73 -112 81 3 9 139 106 150 107 5 0 6 -8 3 -17z"/>
<path d="M8895 9819 l-188 -211 25 -24 25 -25 38 43 c21 24 75 83 119 132 45
49 88 98 96 110 14 20 15 17 20 -49 3 -38 6 -164 8 -280 3 -203 4 -211 26
-233 l23 -23 79 88 c43 48 95 106 114 128 19 22 60 67 90 100 113 123 106 112
85 135 -23 26 -33 25 -57 -2 -11 -13 -52 -59 -91 -102 -40 -44 -88 -97 -107
-119 l-35 -40 -5 266 c-5 264 -5 266 -29 291 -14 14 -30 26 -36 26 -7 0 -96
-95 -200 -211z"/>
<path d="M2240 9927 c-74 -30 -181 -135 -217 -213 -21 -47 -27 -74 -27 -129 1
-86 26 -144 94 -215 59 -62 107 -83 191 -83 87 -1 172 39 252 119 59 59 131
158 125 173 -2 4 -37 44 -78 89 l-75 80 -47 -44 -46 -43 64 -70 c35 -38 64
-76 64 -85 0 -25 -57 -83 -106 -107 -107 -51 -239 22 -318 178 -24 47 -21 140
5 182 40 67 96 100 167 101 28 0 52 4 52 9 0 9 -40 82 -43 80 -1 0 -27 -10
-57 -22z"/>
<path d="M9590 9509 c-19 -17 -93 -86 -165 -152 -71 -67 -149 -140 -172 -162
l-43 -40 112 -116 c136 -140 162 -154 278 -154 74 0 91 3 131 27 57 33 125
106 150 161 41 91 14 194 -77 292 -102 110 -166 175 -172 175 -4 0 -23 -14
-42 -31z m191 -214 c10 -22 19 -50 19 -63 0 -64 -97 -185 -188 -231 -58 -30
-129 -28 -176 4 -36 24 -96 84 -96 95 0 3 32 34 72 70 39 36 81 74 93 85 11
11 56 53 99 94 l79 74 40 -44 c22 -24 48 -62 58 -84z"/>
<path d="M1617 9322 c-9 -10 -17 -24 -17 -30 0 -6 28 -68 61 -139 138 -287
181 -379 190 -400 l9 -23 -119 0 c-65 0 -138 3 -162 6 l-44 6 0 62 c0 51 -4
67 -25 93 -51 64 -130 79 -190 35 -22 -17 -184 -242 -177 -247 3 -4 283 -192
379 -257 48 -32 91 -58 95 -58 5 0 22 23 40 50 l31 50 -86 59 c-145 100 -145
92 -2 86 69 -4 137 -8 151 -11 24 -5 32 3 72 63 25 37 57 80 71 95 l25 26 -45
81 -46 81 67 74 c53 60 70 73 83 66 38 -20 135 -60 147 -60 12 0 101 98 94
104 -8 5 -118 46 -234 86 -66 23 -160 57 -210 75 -129 48 -138 49 -158 27z
m242 -186 c19 -7 36 -17 38 -22 2 -5 -19 -31 -45 -57 l-49 -48 -41 86 c-23 47
-42 88 -42 90 0 3 24 -5 53 -16 28 -12 67 -27 86 -33z m-453 -321 c48 -28 64
-51 64 -90 0 -21 -25 -86 -33 -85 -15 2 -173 120 -175 131 -4 23 47 69 76 69
14 0 45 -11 68 -25z"/>
<path d="M10015 8964 c-44 -30 -151 -103 -238 -161 -87 -58 -156 -109 -155
-112 2 -4 41 -63 88 -133 l85 -126 28 16 c28 17 35 36 17 47 -15 10 -90 113
-90 124 0 8 99 80 157 115 9 5 28 -18 59 -66 26 -40 48 -74 49 -76 5 -6 55 21
55 29 0 5 -22 39 -50 77 -27 38 -50 72 -50 75 0 13 139 99 149 92 6 -3 30 -39
54 -79 l42 -72 27 16 c16 8 28 19 28 23 0 4 -39 65 -87 135 -47 70 -87 128
-87 129 -1 1 -37 -23 -81 -53z"/>
<path d="M10335 8596 c-11 -7 -83 -48 -160 -91 -109 -61 -286 -160 -302 -170
-6 -3 53 -105 60 -105 5 0 58 27 119 60 68 36 108 53 104 44 -4 -9 -38 -68
-77 -132 l-71 -116 34 -63 c18 -35 36 -63 39 -63 3 0 21 28 40 63 69 130 94
175 110 198 l16 23 31 -26 c44 -37 92 -43 145 -20 84 37 110 117 66 205 -51
103 -113 207 -123 206 -6 0 -20 -6 -31 -13z m95 -204 c0 -31 -47 -74 -98 -91
-51 -17 -90 -4 -115 39 -20 34 -25 30 103 99 l75 40 17 -32 c9 -18 17 -43 18
-55z"/>
<path d="M923 8334 c-7 -15 -9 -32 -6 -38 4 -6 75 -92 158 -191 82 -99 167
-202 188 -228 21 -26 42 -47 46 -47 4 0 15 15 23 34 l16 33 -59 59 c-32 32
-59 65 -59 74 0 8 19 48 41 89 l41 74 64 -7 c36 -4 77 -9 93 -12 26 -5 30 -2
57 52 16 33 30 62 32 65 3 7 -17 9 -213 29 -60 6 -166 18 -235 26 -170 19
-173 19 -187 -12z m245 -116 c46 -6 82 -16 82 -22 0 -6 -14 -36 -32 -66 l-31
-55 -54 60 c-64 71 -79 95 -61 95 7 0 50 -5 96 -12z"/>
<path d="M10500 7725 c-146 -56 -265 -106 -265 -111 0 -22 39 -104 49 -104 6
0 47 14 91 31 141 55 131 55 160 -4 29 -61 48 -84 92 -115 94 -67 260 28 237
136 -7 34 -62 191 -75 214 -5 10 -9 24 -9 32 0 8 -3 17 -7 19 -5 2 -127 -42
-273 -98z m285 -71 c18 -44 -4 -87 -59 -114 -50 -24 -77 -25 -114 -6 -29 15
-60 61 -49 72 10 10 191 83 200 80 5 -1 15 -16 22 -32z"/>
<path d="M524 7391 l-11 -40 73 -83 c40 -46 73 -86 74 -89 0 -3 -47 -14 -105
-24 -58 -10 -108 -22 -111 -27 -3 -4 -11 -29 -18 -55 -7 -27 -16 -55 -20 -64
-8 -19 -11 -19 198 26 65 14 125 25 135 25 9 0 59 -54 111 -121 l95 -120 12
28 c7 15 12 33 13 38 0 6 -34 49 -76 97 -41 48 -73 92 -70 97 3 5 39 14 79 21
143 23 140 21 163 95 14 47 17 65 8 65 -7 0 -88 -16 -179 -35 l-167 -34 -19
22 c-10 12 -51 66 -91 119 -40 53 -75 97 -78 98 -3 0 -11 -18 -16 -39z"/>
<path d="M10880 7304 c-25 -7 -142 -42 -260 -75 -118 -34 -216 -63 -217 -64
-2 -1 5 -27 14 -58 11 -39 21 -57 32 -57 9 0 59 14 111 30 52 16 100 30 105
30 6 0 23 -31 38 -70 46 -114 116 -157 213 -130 28 8 55 25 75 48 29 32 30 38
26 101 -5 88 -57 261 -77 260 -8 0 -35 -7 -60 -15z m76 -159 c8 -44 -15 -81
-61 -101 -74 -30 -141 -7 -163 55 l-10 29 106 30 c59 16 110 28 114 25 4 -2
10 -19 14 -38z"/>
<path d="M375 6857 c-12 -35 -54 -300 -49 -306 2 -3 39 -10 82 -17 42 -7 145
-24 227 -39 267 -47 245 -46 256 -18 5 13 9 31 9 40 0 9 10 67 21 130 12 63
20 115 18 117 -2 2 -18 7 -34 10 l-30 7 -13 -93 c-7 -50 -14 -94 -17 -96 -2
-2 -49 4 -105 14 l-101 18 7 40 c3 23 12 63 19 91 8 27 13 51 12 52 -1 0 -18
3 -37 5 -34 3 -35 2 -38 -32 -1 -19 -7 -60 -13 -91 l-11 -55 -76 13 c-43 8
-82 16 -88 18 -12 4 3 100 25 158 6 15 9 27 8 27 -1 0 -17 4 -35 9 -24 7 -34
7 -37 -2z"/>
<path d="M10995 6514 c-66 -35 -187 -98 -268 -140 l-148 -75 3 -37 3 -37 72
-16 c77 -18 224 -60 397 -115 60 -19 113 -34 118 -34 10 0 10 51 0 65 -4 6
-95 32 -202 59 -107 27 -201 51 -208 55 -7 4 67 46 180 101 106 52 194 95 196
95 5 4 -11 145 -17 145 -3 -1 -60 -30 -126 -66z"/>
<path d="M360 6333 c-53 -28 -71 -69 -86 -201 -7 -65 -13 -127 -14 -138 0 -20
8 -22 113 -32 242 -24 460 -42 462 -40 1 2 5 31 8 64 l5 61 -62 6 c-33 4 -94
9 -134 13 -87 8 -88 8 85 85 108 48 122 57 127 83 8 37 8 116 0 116 -3 0 -65
-31 -138 -70 -73 -38 -137 -70 -142 -70 -5 0 -19 21 -31 48 -35 77 -123 111
-193 75z m140 -136 c26 -13 56 -77 47 -102 -7 -17 -53 -19 -156 -8 -40 4 -65
11 -68 20 -10 25 16 89 39 101 26 13 101 7 138 -11z"/>
<path d="M10610 5835 l0 -65 285 0 285 0 0 65 0 65 -285 0 -285 0 0 -65z"/>
<path d="M705 5536 c-60 -29 -185 -89 -276 -134 l-167 -80 7 -34 6 -33 195
-65 c107 -36 236 -78 285 -93 50 -16 96 -31 103 -34 9 -4 12 5 10 32 -1 20 -5
38 -8 40 -4 2 -42 13 -85 25 -44 12 -83 27 -87 33 -4 7 -8 53 -8 103 l0 91 73
28 c39 16 76 32 81 36 10 8 -2 139 -12 138 -4 0 -56 -24 -117 -53z m-81 -223
c8 -52 8 -103 -1 -103 -18 -1 -183 56 -183 63 0 4 4 7 9 7 5 0 42 16 83 34 40
19 76 35 79 35 4 1 9 -16 13 -36z"/>
<path d="M11000 5275 c-69 -19 -190 -48 -270 -66 -80 -18 -146 -33 -147 -33 0
-1 -4 -17 -8 -36 -6 -34 -4 -37 37 -59 52 -29 189 -109 356 -208 67 -40 126
-73 131 -73 5 0 11 15 13 34 4 33 2 35 -67 71 -124 65 -305 170 -305 176 0 5
262 62 393 86 16 3 27 11 28 21 0 9 4 41 8 70 7 51 7 52 -18 51 -14 -1 -82
-16 -151 -34z"/>
<path d="M747 4933 l-117 -117 -17 25 c-80 114 -245 93 -268 -35 -5 -27 38
-290 50 -304 1 -2 33 4 71 13 108 25 138 32 319 71 94 20 171 37 173 39 2 2
-13 77 -23 111 -2 8 -35 4 -107 -12 -162 -36 -165 -35 -83 39 38 34 90 80 114
103 l44 41 -13 54 c-22 98 -14 100 -143 -28z m-153 -165 c26 -23 47 -88 29
-88 -5 0 -52 -9 -103 -20 -51 -11 -97 -20 -101 -20 -4 0 -10 18 -14 40 -12 70
31 107 127 109 25 1 45 -6 62 -21z"/>
<path d="M10540 4875 c-5 -14 -10 -30 -10 -34 0 -5 32 -29 70 -55 39 -26 73
-52 75 -59 3 -7 -5 -50 -18 -97 -25 -96 -27 -97 -138 -99 l-66 -1 -17 -67
c-20 -84 -20 -86 2 -79 16 5 107 18 451 66 80 11 146 22 148 23 1 2 6 17 9 34
6 29 1 34 -88 100 -250 186 -390 288 -398 291 -6 2 -14 -8 -20 -23z m283 -248
c37 -27 67 -50 67 -52 0 -4 -191 -27 -195 -23 -2 3 20 98 30 126 6 16 10 13
98 -51z"/>
<path d="M840 4445 c-62 -22 -94 -38 -93 -47 7 -38 28 -108 33 -108 4 0 46 13
94 30 49 16 93 27 97 24 25 -15 52 -92 52 -145 0 -65 -21 -103 -86 -150 -81
-59 -221 -77 -304 -39 -64 29 -103 95 -103 174 1 34 7 72 15 86 21 37 19 40
-30 40 -42 0 -45 -2 -47 -27 -14 -246 150 -452 342 -430 225 27 331 207 255
432 -25 75 -96 195 -114 194 -9 -1 -59 -16 -111 -34z"/>
<path d="M10391 4279 c-5 -13 -15 -44 -24 -69 -8 -25 -29 -82 -46 -126 -27
-74 -28 -82 -13 -87 9 -3 25 -8 34 -12 14 -5 21 8 44 84 15 50 31 91 35 91 4
0 43 -13 86 -29 211 -79 350 -130 369 -135 18 -5 23 0 34 36 8 24 18 49 23 56
6 7 7 15 4 18 -5 5 -393 146 -477 174 -14 4 -33 11 -42 15 -13 5 -20 1 -27
-16z"/>
<path d="M10191 3748 l-68 -143 31 -17 c35 -19 26 -30 81 98 l27 62 86 -40
c48 -22 91 -43 95 -48 5 -4 -10 -45 -32 -90 -23 -45 -41 -83 -41 -86 0 -2 9
-4 19 -4 11 0 23 -4 26 -10 9 -15 25 -12 25 4 0 13 56 145 66 155 2 3 40 -12
83 -34 l79 -38 -22 -46 c-11 -25 -31 -63 -44 -85 -13 -21 -22 -39 -20 -40 14
-9 61 -26 63 -24 3 3 37 75 110 233 28 59 49 42 -175 146 -224 103 -304 141
-313 146 -4 2 -38 -60 -76 -139z"/>
<path d="M1069 3475 c-136 -67 -252 -124 -258 -126 -8 -3 -1 -25 19 -61 l31
-58 47 23 c26 13 142 70 258 127 l211 103 -29 56 c-16 31 -30 56 -31 57 -1 1
-113 -54 -248 -121z"/>
<path d="M10064 3463 c-21 -32 -32 -23 175 -145 l153 -91 -93 -23 c-52 -12
-170 -37 -264 -55 -144 -28 -173 -37 -193 -58 -12 -13 -21 -29 -19 -35 2 -6
111 -76 242 -155 l238 -144 19 22 c10 13 18 27 18 31 0 4 -72 50 -160 101 -87
52 -159 97 -160 100 0 3 62 18 138 33 75 15 173 36 217 46 44 10 97 21 118 24
29 5 43 16 61 44 l23 37 -41 26 c-22 14 -120 72 -216 129 -96 57 -182 108
-190 115 -31 25 -48 24 -66 -2z"/>
<path d="M1377 3354 c-31 -17 -32 -13 30 -99 24 -32 43 -64 43 -71 0 -11 -125
-95 -162 -109 -11 -4 -25 10 -49 52 -19 32 -37 67 -42 78 -4 10 -10 21 -12 23
-3 3 -40 -18 -64 -35 -3 -2 5 -13 16 -26 28 -31 83 -114 83 -125 0 -5 -32 -30
-72 -56 -65 -43 -73 -45 -82 -29 -6 9 -26 44 -45 78 -18 33 -35 61 -36 63 -2
2 -17 -4 -34 -12 l-31 -16 52 -83 c28 -45 66 -106 85 -135 l33 -53 48 27 c26
15 54 33 62 39 14 11 256 162 342 214 l37 22 -51 82 c-85 137 -118 187 -120
187 -2 -1 -16 -8 -31 -16z"/>
<path d="M1550 2871 c-90 -18 -198 -98 -234 -175 -48 -102 -25 -180 100 -347
47 -63 89 -120 94 -128 6 -11 61 26 238 159 186 140 229 177 222 190 -24 45
-174 226 -207 250 -59 43 -147 64 -213 51z m212 -131 c43 -29 104 -108 92
-119 -5 -5 -52 -40 -104 -79 -52 -39 -133 -100 -180 -135 l-85 -64 -28 36
c-107 134 -86 232 73 338 25 17 59 35 75 41 45 17 119 9 157 -18z"/>
<path d="M9630 2793 c-14 -21 -28 -43 -33 -50 -5 -8 61 -61 198 -159 113 -81
205 -151 205 -155 0 -4 -20 -31 -45 -61 l-44 -53 22 -17 c12 -10 27 -18 32
-18 6 0 65 77 132 171 l123 171 -24 19 c-13 11 -26 19 -29 19 -2 0 -21 -27
-41 -60 -21 -33 -41 -60 -46 -60 -4 0 -95 64 -201 141 -107 78 -201 144 -209
146 -9 2 -25 -12 -40 -34z"/>
<path d="M9388 2498 c-21 -24 -38 -46 -38 -49 0 -5 116 -114 192 -181 11 -9
52 -46 92 -81 85 -77 132 -117 138 -117 2 0 21 21 42 46 37 44 38 46 20 62
-296 270 -400 362 -406 362 -1 0 -20 -19 -40 -42z"/>
<path d="M9216 2301 c-10 -11 -16 -25 -15 -30 2 -6 62 -72 133 -146 70 -75
127 -138 125 -140 -4 -4 -175 8 -349 25 -160 15 -204 13 -224 -9 -22 -24 -21
-29 29 -83 22 -24 105 -113 184 -198 79 -85 148 -157 153 -159 10 -3 48 27 48
40 0 4 -40 49 -88 100 -107 114 -162 175 -162 181 0 2 35 1 78 -3 42 -4 160
-12 260 -19 l184 -13 31 31 30 31 -69 72 c-127 134 -145 154 -231 247 -47 50
-89 92 -93 92 -4 0 -15 -9 -24 -19z"/>
<path d="M2244 2116 c-39 -22 -57 -41 -75 -81 -25 -54 -24 -86 6 -185 31 -103
31 -112 2 -146 -53 -62 -151 -8 -146 79 2 23 1 44 -2 46 -7 7 -79 -30 -79 -41
0 -22 43 -90 76 -120 44 -41 85 -58 136 -58 45 0 71 11 111 49 62 57 71 115
36 222 -31 94 -30 135 4 165 34 29 62 30 104 4 45 -27 56 -54 50 -117 -3 -29
-4 -53 -1 -53 3 0 60 35 93 57 2 1 -2 17 -10 35 -20 49 -88 118 -137 139 -49
21 -135 24 -168 5z"/>
<path d="M8597 1796 l-28 -23 25 -104 c23 -95 74 -345 91 -444 9 -55 12 -58
46 -38 34 20 33 13 13 88 -16 62 -47 198 -68 298 -7 31 -9 57 -4 57 7 0 257
-176 268 -189 3 -3 22 -19 42 -34 l37 -27 44 32 c24 18 52 38 61 43 15 9 -3
24 -111 97 -70 47 -186 127 -256 177 -70 50 -129 91 -130 91 -1 -1 -15 -11
-30 -24z"/>
<path d="M2730 1753 c-36 -24 -148 -93 -250 -155 -102 -61 -191 -116 -198
-123 -11 -10 -8 -16 15 -33 l29 -21 115 77 c161 108 245 162 251 162 4 0 2
-15 -3 -32 -51 -187 -73 -263 -90 -321 -12 -38 -19 -69 -18 -71 2 -1 28 -19
57 -40 29 -21 55 -36 58 -34 2 3 24 83 49 179 24 96 58 225 75 287 16 62 30
116 30 120 0 5 -12 17 -28 29 l-27 20 -65 -44z"/>
<path d="M8270 1581 c-39 -12 -85 -38 -119 -67 -91 -76 -94 -214 -8 -285 33
-27 111 -42 174 -35 75 9 129 -7 148 -44 37 -72 -69 -153 -139 -106 -35 23
-38 21 -30 -21 9 -54 21 -63 72 -54 149 28 225 169 153 282 -41 65 -76 79
-205 79 -100 0 -108 2 -131 25 -44 43 -31 111 27 141 34 18 120 14 126 -5 2
-6 10 -11 18 -11 14 0 14 4 -6 80 -7 27 -36 35 -80 21z"/>
<path d="M3110 1486 c-130 -35 -230 -164 -230 -298 0 -100 53 -168 197 -254
43 -25 99 -59 125 -74 34 -21 49 -26 56 -17 5 7 45 73 89 147 44 74 106 176
137 227 31 51 56 96 56 101 0 8 -142 98 -220 140 -28 15 -126 42 -150 41 -8 0
-35 -6 -60 -13z m180 -76 c19 -5 54 -23 78 -38 l42 -29 -116 -194 c-64 -107
-119 -197 -123 -201 -3 -4 -34 10 -68 32 -105 66 -127 144 -74 255 37 77 89
137 143 164 48 23 67 25 118 11z"/>
<path d="M3554 1027 c-62 -144 -109 -265 -105 -269 3 -4 18 -9 32 -13 25 -6
28 -3 74 107 26 62 57 136 70 163 12 28 24 56 27 64 2 8 11 -6 21 -30 56 -153
157 -438 157 -447 0 -5 12 -15 28 -20 15 -5 34 -13 43 -17 17 -7 12 -18 165
354 65 156 67 164 49 177 -39 29 -42 25 -151 -248 -21 -54 -41 -98 -44 -98 -6
0 -35 80 -125 335 -29 83 -56 158 -60 167 -5 12 -57 41 -69 38 -1 0 -51 -118
-112 -263z"/>
<path d="M7560 1199 c-8 -5 -34 -14 -58 -20 -25 -7 -41 -16 -39 -23 14 -33 97
-248 97 -250 0 -1 -39 -15 -87 -31 -49 -16 -89 -30 -91 -31 -2 -1 16 -49 24
-62 1 -1 39 14 84 34 79 34 84 35 97 18 7 -10 13 -23 13 -30 0 -6 9 -31 20
-55 11 -24 20 -49 20 -55 0 -12 -51 -33 -130 -55 -25 -7 -46 -13 -48 -15 -2
-1 17 -52 25 -63 1 -2 26 6 55 17 29 11 93 35 142 53 48 19 90 38 93 45 3 9
-172 479 -194 519 -6 10 -13 11 -23 4z"/>
<path d="M4184 1049 c5 -22 28 -181 56 -394 29 -215 28 -212 62 -219 17 -3 32
-5 33 -4 3 4 182 246 287 389 l86 117 -38 10 -39 10 -50 -78 -51 -77 -92 24
c-51 14 -94 26 -96 27 -1 2 -5 34 -8 72 -9 111 -7 108 -70 122 -31 8 -63 16
-71 19 -10 4 -13 0 -9 -18z m242 -274 c31 -8 59 -17 61 -19 2 -2 -22 -40 -55
-85 l-59 -81 -12 83 c-18 133 -23 125 65 102z"/>
<path d="M7060 1024 c-47 -14 -109 -32 -138 -40 -53 -15 -53 -15 -47 -47 4
-18 9 -34 11 -36 1 -2 33 8 71 22 120 45 107 50 137 -56 14 -51 26 -98 26
-103 0 -11 -104 -44 -137 -44 -35 0 -44 -13 -31 -47 l11 -31 86 29 c46 16 86
29 87 29 3 0 22 -63 50 -161 3 -12 -9 -19 -53 -29 -142 -31 -132 -26 -121 -64
l10 -33 152 44 c83 24 152 45 153 47 1 1 -11 49 -28 107 -29 99 -50 173 -101
357 -16 57 -27 82 -38 81 -8 0 -53 -12 -100 -25z"/>
<path d="M6700 933 c-19 -3 -39 -8 -43 -12 -5 -5 -3 -37 3 -72 6 -35 16 -90
21 -122 6 -33 9 -61 6 -63 -3 -3 -162 190 -187 227 -6 8 -150 -12 -150 -21 0
-3 47 -59 105 -125 l105 -119 -46 -41 c-42 -36 -47 -46 -52 -93 -8 -84 27
-138 100 -156 29 -7 288 30 299 42 3 4 -6 79 -21 167 -15 88 -35 213 -45 278
-19 129 -11 120 -95 110z m14 -419 c9 -59 15 -109 12 -111 -2 -3 -22 -7 -43
-10 -53 -7 -80 17 -92 81 -11 62 2 102 43 127 57 35 62 30 80 -87z"/>
<path d="M4785 907 c-4 -11 -21 -128 -45 -307 -5 -36 -14 -96 -19 -135 -17
-116 -16 -125 19 -125 38 0 32 -21 71 280 11 81 15 98 22 89 2 -2 49 -69 105
-149 201 -289 194 -280 224 -281 15 -1 34 -2 40 -3 8 -1 16 20 20 54 4 30 12
87 18 125 5 39 17 120 25 180 9 61 20 131 24 157 9 55 8 58 -30 58 -34 0 -33
4 -59 -195 -12 -88 -25 -168 -28 -178 -6 -14 -27 10 -98 110 -50 70 -117 168
-150 217 -32 50 -61 93 -64 96 -11 14 -71 20 -75 7z"/>
<path d="M6040 840 c-106 -9 -176 -38 -229 -95 -59 -64 -74 -106 -75 -205 -1
-124 34 -196 123 -248 l46 -27 185 3 c101 1 188 6 191 10 6 7 0 182 -16 451
l-8 121 -66 -1 c-36 -1 -104 -5 -151 -9z m104 -215 c3 -82 9 -184 12 -226 l7
-76 -57 -7 c-83 -9 -139 8 -180 56 -72 84 -74 274 -3 355 17 19 42 40 56 45
43 17 135 25 147 14 7 -7 14 -70 18 -161z"/>
<path d="M5444 653 c-4 -98 -8 -227 -9 -286 l0 -108 61 -3 62 -4 6 207 c3 113
8 243 9 289 l3 82 -62 0 -62 0 -8 -177z"/>
</g>
</svg>
