<?xml version="1.0" standalone="no"?>
<!DOCTYPE svg PUBLIC "-//W3C//DTD SVG 20010904//EN"
 "http://www.w3.org/TR/2001/REC-SVG-20010904/DTD/svg10.dtd">
<svg version="1.0" xmlns="http://www.w3.org/2000/svg"
 width="341.000000pt" height="329.000000pt" viewBox="0 0 341.000000 329.000000"
 preserveAspectRatio="xMidYMid meet">

<g transform="translate(0.000000,329.000000) scale(0.100000,-0.100000)"
fill="#000000" stroke="none">
<path d="M1515 3279 c-741 -57 -1357 -621 -1486 -1357 -28 -161 -28 -393 0
-554 145 -832 906 -1424 1741 -1357 759 61 1359 606 1497 1359 24 134 24 419
-1 555 -121 666 -631 1192 -1286 1325 -84 17 -320 43 -355 38 -5 0 -55 -4
-110 -9z m450 -204 c297 -54 566 -195 785 -415 215 -214 348 -458 412 -753 32
-148 32 -446 0 -594 -128 -593 -575 -1037 -1172 -1164 -152 -33 -429 -33 -580
0 -305 65 -546 195 -760 410 -273 274 -417 596 -436 981 -30 585 296 1141 821
1399 170 84 332 131 535 155 68 8 306 -4 395 -19z"/>
<path d="M1923 2852 c-56 -20 -93 -46 -180 -126 -190 -173 -322 -234 -488
-223 -72 4 -109 14 -235 63 -54 20 -160 17 -225 -7 -163 -61 -252 -265 -181
-414 26 -54 102 -133 180 -185 57 -38 87 -95 88 -169 1 -41 -6 -61 -40 -119
-57 -95 -63 -116 -63 -194 0 -51 6 -78 25 -115 26 -53 94 -121 147 -149 70
-35 140 -87 154 -114 8 -15 17 -49 21 -77 5 -45 2 -60 -34 -140 -51 -115 -58
-157 -38 -225 20 -68 60 -116 127 -153 46 -25 65 -30 124 -30 79 1 126 20 187
78 49 46 76 50 293 38 196 -11 305 -28 429 -69 184 -60 342 -6 418 141 33 65
36 169 8 235 -50 116 -175 190 -305 180 -93 -8 -135 -36 -285 -187 -160 -162
-199 -186 -306 -186 -60 0 -77 4 -112 27 -22 15 -60 55 -83 89 -69 102 -104
135 -168 159 -33 12 -67 30 -76 40 -25 28 -40 151 -25 205 13 46 69 119 120
155 40 29 114 41 173 28 40 -8 59 -21 110 -73 82 -84 115 -99 203 -100 61 0
77 4 120 30 132 82 153 258 43 362 -46 44 -97 63 -166 63 -70 0 -129 -25 -197
-82 -69 -58 -111 -71 -194 -58 -84 14 -116 34 -161 101 -45 66 -86 94 -149
103 -60 8 -97 34 -112 82 -18 54 -5 96 56 176 31 40 74 111 96 158 89 189 127
223 271 242 127 17 196 3 332 -69 108 -57 112 -58 190 -57 63 0 90 5 130 24
193 94 234 343 78 480 -81 72 -202 97 -300 62z m147 -122 c24 -24 25 -48 4
-78 -31 -44 -104 -20 -104 35 0 57 61 82 100 43z m-1065 -275 c30 -30 31 -54
4 -89 -29 -36 -80 -36 -109 1 -55 70 42 151 105 88z m210 -840 c14 -13 25 -33
25 -45 0 -26 -43 -70 -68 -70 -59 0 -88 84 -43 122 31 25 57 23 86 -7z m725
-55 c14 -26 5 -57 -21 -71 -43 -23 -92 44 -57 79 20 20 66 15 78 -8z m500
-600 c27 -27 26 -77 -2 -107 -45 -49 -128 -14 -128 54 0 44 30 73 75 73 22 0
43 -8 55 -20z m-1076 -106 c23 -23 20 -51 -9 -70 -23 -15 -27 -15 -50 0 -29
19 -32 42 -8 68 20 22 46 23 67 2z"/>
</g>
</svg>
